<svg xmlns="http://www.w3.org/2000/svg" xmlns:xlink="http://www.w3.org/1999/xlink" width="300" zoomAndPan="magnify" viewBox="0 0 224.87999 187.499995" height="250" preserveAspectRatio="xMidYMid meet" version="1.0"><defs><g/><clipPath id="8d6eca5b0b"><path d="M 71.660156 0 L 173.71875 0 L 173.71875 122.117188 L 71.660156 122.117188 Z M 71.660156 0 " clip-rule="nonzero"/></clipPath></defs><path fill="#ffffff" d="M 92.875 47.867188 C 92.875 47.867188 76.335938 15.082031 73.925781 11.058594 C 69.652344 3.921875 77.382812 -1.527344 81.421875 8.171875 C 85.457031 17.867188 97.03125 46.351562 97.03125 46.351562 " fill-opacity="1" fill-rule="nonzero"/><path fill="#ffffff" d="M 167.636719 75.851562 C 167.222656 79.707031 163.371094 83.828125 159.644531 84.703125 C 158.316406 85.015625 157.332031 84.402344 157.082031 83.058594 C 156.667969 80.851562 157.503906 78.652344 156.597656 76.5 C 156.203125 75.558594 155.695312 74.660156 155.5 73.648438 C 155.257812 72.382812 155.335938 71.046875 155.363281 69.769531 C 155.421875 67.160156 155.105469 64.617188 154.925781 62.027344 C 154.570312 61.644531 154.457031 61.027344 154.933594 60.550781 C 156.257812 59.230469 157.964844 58.714844 159.8125 59.050781 C 161.496094 59.355469 162.304688 60.421875 163.050781 61.863281 C 163.945312 63.582031 165.339844 65.175781 165.824219 67.078125 C 165.871094 67.261719 165.902344 67.457031 165.921875 67.65625 C 167.824219 69.527344 167.890625 73.515625 167.636719 75.851562 Z M 173.0625 68.882812 C 171.917969 61.816406 168.394531 55.785156 163.632812 52.75 C 161.707031 51.519531 159.675781 50.898438 157.59375 50.898438 C 155.242188 50.898438 152.871094 51.6875 150.546875 53.238281 C 150.476562 53.285156 150.410156 53.339844 150.328125 53.414062 L 150.121094 53.605469 L 149.925781 53.394531 C 149.53125 52.96875 149.199219 52.628906 148.886719 52.320312 C 148.089844 51.535156 147.46875 50.859375 146.9375 50.199219 C 146.09375 49.808594 145.132812 49.417969 144.074219 49.039062 C 136.214844 46.226562 124.890625 44.609375 113.007812 44.609375 C 102.304688 44.609375 93.160156 47.382812 88.660156 49.035156 C 87.058594 49.625 86.035156 50.074219 85.75 50.203125 C 85.277344 51.136719 84.84375 52.066406 84.46875 52.976562 C 83.082031 56.300781 81.773438 59.273438 79.757812 61.945312 C 78.726562 63.304688 78.242188 64.699219 78.3125 66.082031 C 78.542969 70.527344 77.964844 75.019531 76.496094 80.214844 C 75.542969 83.597656 77.199219 87.601562 80.433594 89.730469 C 81.726562 90.582031 82.34375 91.632812 82.320312 92.945312 C 82.289062 94.960938 82.714844 96.953125 83.125 98.882812 C 83.410156 100.21875 83.703125 101.601562 83.847656 102.992188 C 84.019531 104.660156 84.132812 106.644531 83.648438 108.71875 C 83.480469 109.4375 83.273438 110.152344 83.070312 110.84375 C 82.933594 111.300781 82.800781 111.757812 82.679688 112.214844 C 82.074219 114.476562 82.292969 116.230469 83.394531 117.90625 C 85.125 120.546875 87.40625 121.828125 90.363281 121.828125 C 90.949219 121.828125 91.570312 121.777344 92.214844 121.675781 C 93.089844 121.539062 93.980469 121.363281 94.839844 121.195312 C 96.566406 120.855469 98.351562 120.503906 100.125 120.433594 C 102.570312 120.335938 105.1875 120.246094 107.78125 120.246094 C 113.257812 120.246094 117.699219 120.65625 121.765625 121.535156 C 122.554688 121.703125 123.332031 121.789062 124.078125 121.789062 C 126.515625 121.789062 128.769531 120.855469 130.773438 119.007812 C 131.71875 118.136719 132.839844 117.097656 133.972656 116.011719 C 134.8125 115.210938 135.265625 114.140625 135.746094 113.011719 C 135.886719 112.671875 136.035156 112.328125 136.191406 111.988281 L 136.320312 111.707031 L 136.59375 111.855469 C 136.980469 112.070312 137.316406 112.339844 137.640625 112.597656 C 138.203125 113.046875 138.6875 113.4375 139.304688 113.4375 C 139.347656 113.4375 139.390625 113.433594 139.4375 113.429688 C 141.15625 113.277344 142.949219 113.039062 144.761719 112.71875 C 145.671875 112.558594 146.398438 111.972656 147.125 110.8125 C 148.726562 108.257812 149.8125 106.230469 150.640625 104.246094 C 151.761719 101.558594 153.0625 99.265625 154.617188 97.226562 C 155.703125 95.804688 156.539062 94.257812 157.097656 92.621094 L 157.183594 92.367188 L 157.445312 92.4375 C 157.609375 92.480469 157.773438 92.503906 157.933594 92.503906 C 157.964844 92.503906 157.996094 92.503906 158.027344 92.503906 C 162.367188 92.277344 166.230469 90.21875 169.207031 86.542969 C 172.761719 82.15625 174.167969 75.71875 173.0625 68.882812 " fill-opacity="1" fill-rule="nonzero"/><g clip-path="url(#8d6eca5b0b)"><path fill="#000000" d="M 113.453125 74.730469 C 113.707031 74.878906 113.949219 75.003906 114.164062 75.109375 C 114.382812 75.210938 114.574219 75.292969 114.734375 75.355469 C 114.894531 75.421875 115.023438 75.464844 115.109375 75.496094 C 115.195312 75.527344 115.242188 75.542969 115.242188 75.542969 C 115.347656 75.578125 115.460938 75.527344 115.5 75.421875 C 115.542969 75.316406 115.488281 75.199219 115.382812 75.160156 L 115.375 75.15625 C 115.375 75.15625 115.332031 75.140625 115.25 75.105469 C 115.167969 75.074219 115.046875 75.03125 114.894531 74.964844 C 114.742188 74.902344 114.5625 74.816406 114.359375 74.714844 C 114.15625 74.609375 113.929688 74.480469 113.6875 74.332031 C 113.214844 74.035156 112.6875 73.636719 112.179688 73.152344 C 111.925781 72.90625 111.679688 72.636719 111.445312 72.355469 C 111.214844 72.0625 111.003906 71.773438 110.796875 71.441406 C 110.613281 71.128906 110.429688 70.792969 110.277344 70.460938 C 110.125 70.125 109.996094 69.785156 109.890625 69.449219 C 109.808594 69.191406 109.742188 68.9375 109.683594 68.6875 C 110.777344 70.925781 112.777344 72.988281 114.792969 73.632812 C 116.425781 74.15625 118.097656 74.585938 119.445312 74.507812 C 120.957031 74.492188 122.054688 74.402344 123.164062 74.199219 C 123.832031 74.082031 124.421875 73.871094 124.945312 73.578125 C 124.929688 73.59375 124.914062 73.613281 124.898438 73.632812 C 124.773438 73.769531 124.625 73.898438 124.476562 74.039062 C 124.320312 74.171875 124.164062 74.308594 123.992188 74.4375 C 123.824219 74.570312 123.640625 74.6875 123.460938 74.808594 C 123.277344 74.917969 123.09375 75.035156 122.902344 75.125 C 122.714844 75.226562 122.519531 75.304688 122.335938 75.390625 C 122.148438 75.464844 121.96875 75.542969 121.789062 75.597656 C 121.613281 75.65625 121.449219 75.714844 121.289062 75.753906 C 121.132812 75.800781 120.992188 75.835938 120.863281 75.859375 C 120.738281 75.890625 120.628906 75.917969 120.527344 75.929688 C 120.332031 75.964844 120.222656 75.984375 120.222656 75.984375 C 120.125 76 120.050781 76.089844 120.054688 76.195312 C 120.058594 76.308594 120.152344 76.394531 120.265625 76.390625 C 120.265625 76.390625 120.378906 76.386719 120.574219 76.382812 C 120.765625 76.375 121.074219 76.34375 121.414062 76.269531 C 121.585938 76.238281 121.769531 76.191406 121.960938 76.132812 C 122.15625 76.082031 122.351562 76 122.554688 75.925781 C 122.757812 75.835938 122.964844 75.746094 123.164062 75.636719 C 123.371094 75.53125 123.566406 75.40625 123.765625 75.285156 C 123.957031 75.148438 124.152344 75.023438 124.328125 74.875 C 124.515625 74.738281 124.679688 74.582031 124.839844 74.433594 C 124.992188 74.277344 125.144531 74.132812 125.273438 73.980469 C 125.40625 73.828125 125.527344 73.683594 125.628906 73.539062 C 125.734375 73.402344 125.824219 73.269531 125.898438 73.148438 C 125.976562 73.027344 126.042969 72.925781 126.089844 72.832031 C 126.148438 72.722656 126.191406 72.644531 126.214844 72.597656 C 126.582031 72.222656 126.917969 71.792969 127.214844 71.304688 C 129.070312 68.246094 129.703125 64.914062 129.339844 61.382812 C 129.21875 60.203125 128.558594 59.289062 127.578125 58.644531 C 125.492188 57.277344 123.351562 56.011719 121.03125 55.074219 C 119.140625 54.3125 117.167969 54.183594 115.199219 54.472656 C 112.878906 54.8125 110.835938 55.835938 110.050781 58.203125 C 109.269531 60.566406 108.769531 63.039062 108.832031 65.570312 C 108.839844 65.859375 108.871094 66.160156 108.929688 66.460938 C 108.921875 66.574219 108.917969 66.691406 108.914062 66.820312 C 108.914062 67.0625 108.914062 67.335938 108.9375 67.632812 C 108.96875 67.929688 109.007812 68.25 109.074219 68.585938 C 109.132812 68.925781 109.234375 69.273438 109.347656 69.628906 C 109.460938 69.980469 109.605469 70.339844 109.769531 70.695312 C 109.941406 71.050781 110.125 71.394531 110.347656 71.738281 C 110.550781 72.054688 110.796875 72.390625 111.042969 72.691406 C 111.296875 72.984375 111.5625 73.265625 111.832031 73.519531 C 112.105469 73.769531 112.378906 74.003906 112.65625 74.203125 C 112.925781 74.40625 113.199219 74.578125 113.453125 74.730469 Z M 114.421875 52.949219 L 114.425781 52.949219 C 114.425781 52.949219 114.480469 52.917969 114.585938 52.867188 C 114.691406 52.8125 114.851562 52.738281 115.058594 52.652344 C 115.472656 52.484375 116.074219 52.253906 116.820312 52.085938 C 117.5625 51.90625 118.453125 51.792969 119.394531 51.855469 C 120.339844 51.910156 121.332031 52.167969 122.222656 52.644531 C 122.449219 52.761719 122.660156 52.894531 122.875 53.03125 C 123.09375 53.175781 123.308594 53.320312 123.523438 53.460938 C 123.949219 53.75 124.363281 54.039062 124.761719 54.324219 C 125.558594 54.890625 126.289062 55.4375 126.90625 55.921875 C 127.523438 56.40625 128.023438 56.824219 128.363281 57.125 C 128.535156 57.277344 128.664062 57.398438 128.757812 57.476562 C 128.84375 57.558594 128.890625 57.601562 128.890625 57.601562 L 128.894531 57.609375 C 128.976562 57.683594 129.101562 57.683594 129.179688 57.601562 C 129.257812 57.523438 129.257812 57.394531 129.175781 57.3125 C 129.175781 57.3125 129.128906 57.265625 129.039062 57.179688 C 128.949219 57.09375 128.816406 56.96875 128.644531 56.808594 C 128.304688 56.496094 127.808594 56.058594 127.199219 55.558594 C 126.585938 55.054688 125.859375 54.488281 125.0625 53.90625 C 124.664062 53.613281 124.246094 53.320312 123.820312 53.023438 C 123.605469 52.875 123.390625 52.730469 123.175781 52.582031 C 122.949219 52.433594 122.722656 52.28125 122.480469 52.15625 C 121.527344 51.636719 120.449219 51.34375 119.433594 51.28125 C 118.414062 51.207031 117.46875 51.355469 116.6875 51.550781 C 115.910156 51.761719 115.285156 52.023438 114.867188 52.234375 C 114.449219 52.445312 114.21875 52.597656 114.21875 52.597656 C 114.132812 52.652344 114.101562 52.769531 114.148438 52.863281 C 114.199219 52.960938 114.324219 53.003906 114.421875 52.949219 Z M 103.265625 77.332031 C 102.378906 74.101562 101.390625 70.898438 100.402344 67.691406 C 100.125 66.792969 99.722656 65.917969 99.039062 65.230469 C 98.183594 64.375 96.371094 63.949219 95.457031 64.429688 C 94.4375 64.964844 94.539062 65.984375 94.492188 66.921875 C 94.488281 67.007812 94.484375 67.09375 94.488281 67.179688 C 94.617188 70.949219 93.910156 74.527344 92.238281 77.925781 C 91.671875 79.078125 91.316406 80.339844 91.355469 81.660156 C 91.375 82.386719 91.535156 83.046875 92.429688 83.113281 C 92.78125 82.972656 93.015625 82.722656 93.214844 82.433594 C 93.265625 82.355469 93.316406 82.273438 93.367188 82.191406 C 93.597656 81.804688 93.800781 81.390625 94.121094 81.097656 C 94.054688 81.292969 93.988281 81.5 93.914062 81.714844 C 93.773438 82.117188 93.660156 82.570312 93.492188 82.953125 C 93.410156 83.144531 93.308594 83.320312 93.183594 83.457031 C 93.058594 83.597656 92.929688 83.695312 92.765625 83.753906 C 92.609375 83.8125 92.433594 83.832031 92.269531 83.820312 C 92.097656 83.808594 91.945312 83.773438 91.796875 83.722656 C 91.507812 83.621094 91.269531 83.480469 91.105469 83.378906 C 90.941406 83.273438 90.847656 83.210938 90.847656 83.210938 L 90.84375 83.210938 C 90.753906 83.152344 90.632812 83.175781 90.570312 83.261719 C 90.503906 83.351562 90.523438 83.480469 90.613281 83.546875 C 90.613281 83.546875 90.707031 83.617188 90.867188 83.738281 C 91.035156 83.855469 91.277344 84.03125 91.628906 84.179688 C 91.96875 84.316406 92.441406 84.417969 92.9375 84.265625 C 93.179688 84.1875 93.425781 84.027344 93.597656 83.832031 C 93.773438 83.632812 93.902344 83.410156 94.003906 83.183594 C 94.105469 82.960938 94.1875 82.734375 94.257812 82.519531 C 94.328125 82.304688 94.394531 82.09375 94.457031 81.890625 C 94.582031 81.480469 94.707031 81.101562 94.796875 80.769531 C 94.796875 80.761719 94.796875 80.757812 94.800781 80.753906 C 95.253906 80.710938 95.609375 80.878906 95.9375 81.109375 C 96.050781 81.191406 96.164062 81.28125 96.277344 81.371094 C 96.425781 81.492188 96.570312 81.617188 96.726562 81.726562 C 98.582031 83.039062 100.164062 83.082031 101.941406 81.886719 C 102.386719 81.589844 102.734375 81.269531 102.992188 80.902344 C 102.953125 81.128906 102.902344 81.355469 102.832031 81.574219 C 102.660156 82.15625 102.371094 82.707031 102.023438 83.125 C 101.84375 83.34375 101.648438 83.519531 101.441406 83.664062 C 101.238281 83.804688 101.027344 83.914062 100.828125 83.984375 C 100.421875 84.136719 100.054688 84.136719 99.808594 84.105469 C 99.683594 84.085938 99.605469 84.070312 99.527344 84.046875 C 99.453125 84.023438 99.417969 84.011719 99.417969 84.011719 C 99.320312 83.984375 99.210938 84.03125 99.171875 84.128906 C 99.128906 84.230469 99.175781 84.351562 99.277344 84.398438 C 99.277344 84.398438 99.316406 84.414062 99.382812 84.441406 C 99.445312 84.46875 99.578125 84.515625 99.726562 84.550781 C 99.878906 84.585938 100.066406 84.609375 100.28125 84.609375 C 100.496094 84.601562 100.742188 84.566406 100.992188 84.488281 C 101.246094 84.414062 101.507812 84.292969 101.753906 84.125 C 102.003906 83.960938 102.246094 83.742188 102.453125 83.5 C 102.882812 83.003906 103.179688 82.382812 103.371094 81.738281 C 103.5625 81.09375 103.648438 80.417969 103.636719 79.800781 C 103.628906 79.238281 103.558594 78.722656 103.46875 78.273438 C 103.421875 77.980469 103.355469 77.667969 103.265625 77.332031 Z M 146.828125 84.679688 C 146.253906 81.550781 144.179688 79.117188 142.886719 76.316406 C 142.363281 75.179688 141.527344 74.34375 140.277344 74 C 138.792969 73.59375 138.328125 72.472656 138.234375 71.074219 C 138.144531 69.710938 138.324219 68.324219 137.824219 66.800781 C 136.191406 66.496094 135.5 65.019531 134.589844 63.785156 C 133.691406 62.570312 134.25 61.03125 133.804688 59.457031 C 133.917969 59.300781 134.058594 59.1875 134.210938 59.175781 C 134.257812 59.167969 134.316406 59.175781 134.355469 59.183594 C 134.367188 59.179688 134.417969 59.195312 134.453125 59.203125 L 134.480469 59.210938 C 134.457031 59.207031 134.480469 59.214844 134.480469 59.214844 C 134.492188 59.21875 134.503906 59.226562 134.515625 59.230469 C 134.621094 59.285156 134.734375 59.355469 134.835938 59.433594 C 135.03125 59.589844 135.183594 59.769531 135.292969 59.933594 C 135.347656 60.015625 135.394531 60.089844 135.429688 60.164062 C 135.472656 60.234375 135.492188 60.292969 135.515625 60.34375 C 135.539062 60.394531 135.554688 60.457031 135.566406 60.488281 C 135.578125 60.519531 135.585938 60.539062 135.585938 60.539062 C 135.613281 60.617188 135.6875 60.675781 135.777344 60.675781 C 135.890625 60.675781 135.984375 60.585938 135.988281 60.472656 C 135.988281 60.472656 135.988281 60.453125 135.988281 60.414062 C 135.988281 60.375 135.992188 60.332031 135.980469 60.25 C 135.972656 60.171875 135.949219 60.070312 135.917969 59.96875 C 135.886719 59.867188 135.839844 59.75 135.773438 59.636719 C 135.644531 59.402344 135.433594 59.171875 135.171875 58.980469 C 135.039062 58.886719 134.902344 58.796875 134.730469 58.726562 C 134.710938 58.71875 134.683594 58.710938 134.660156 58.703125 L 134.609375 58.6875 L 134.582031 58.679688 C 134.539062 58.671875 134.515625 58.660156 134.453125 58.65625 C 134.34375 58.636719 134.246094 58.636719 134.140625 58.652344 C 133.933594 58.679688 133.746094 58.785156 133.605469 58.914062 C 133.605469 58.910156 133.601562 58.90625 133.601562 58.902344 C 133.601562 58.878906 133.605469 58.851562 133.609375 58.828125 C 133.667969 58.679688 133.742188 58.53125 133.839844 58.398438 C 134.007812 58.164062 134.246094 58.003906 134.519531 58 C 134.589844 57.996094 134.65625 58.003906 134.71875 58.011719 L 134.84375 58.039062 C 134.863281 58.046875 134.898438 58.058594 134.929688 58.074219 C 135.066406 58.125 135.210938 58.203125 135.335938 58.285156 C 135.460938 58.367188 135.578125 58.453125 135.675781 58.550781 C 135.777344 58.640625 135.863281 58.734375 135.9375 58.820312 C 136.007812 58.910156 136.070312 58.996094 136.117188 59.074219 C 136.167969 59.15625 136.195312 59.226562 136.226562 59.28125 C 136.257812 59.332031 136.269531 59.40625 136.285156 59.441406 C 136.300781 59.480469 136.308594 59.503906 136.308594 59.503906 C 136.335938 59.585938 136.417969 59.640625 136.507812 59.636719 C 136.621094 59.632812 136.710938 59.535156 136.707031 59.421875 C 136.707031 59.421875 136.707031 59.398438 136.703125 59.355469 C 136.699219 59.3125 136.707031 59.261719 136.683594 59.164062 C 136.667969 59.070312 136.632812 58.960938 136.585938 58.847656 C 136.539062 58.730469 136.472656 58.601562 136.382812 58.480469 C 136.210938 58.226562 135.945312 57.996094 135.632812 57.804688 C 135.476562 57.710938 135.3125 57.621094 135.121094 57.554688 C 135.070312 57.539062 135.023438 57.523438 134.957031 57.507812 L 134.820312 57.484375 C 134.707031 57.46875 134.597656 57.460938 134.488281 57.46875 C 134.269531 57.484375 134.050781 57.558594 133.867188 57.679688 C 133.847656 57.6875 133.835938 57.703125 133.820312 57.714844 C 133.867188 57.53125 133.925781 57.34375 133.988281 57.175781 C 134.097656 56.898438 134.242188 56.640625 134.429688 56.460938 C 134.476562 56.417969 134.53125 56.378906 134.570312 56.347656 C 134.59375 56.332031 134.632812 56.308594 134.667969 56.292969 C 134.675781 56.289062 134.714844 56.269531 134.738281 56.257812 C 134.847656 56.214844 134.964844 56.1875 135.089844 56.179688 C 135.332031 56.167969 135.582031 56.234375 135.789062 56.34375 C 136 56.453125 136.171875 56.597656 136.316406 56.761719 C 136.597656 57.09375 136.746094 57.457031 136.84375 57.707031 C 136.890625 57.835938 136.921875 57.9375 136.945312 58.007812 C 136.964844 58.078125 136.976562 58.117188 136.976562 58.117188 C 137.003906 58.214844 137.105469 58.277344 137.207031 58.261719 C 137.320312 58.242188 137.390625 58.132812 137.371094 58.023438 C 137.371094 58.023438 137.363281 57.984375 137.351562 57.90625 C 137.335938 57.828125 137.3125 57.710938 137.273438 57.570312 C 137.191406 57.28125 137.058594 56.859375 136.722656 56.429688 C 136.5625 56.214844 136.335938 55.996094 136.046875 55.847656 C 135.765625 55.699219 135.429688 55.59375 135.0625 55.605469 C 134.882812 55.613281 134.691406 55.648438 134.515625 55.722656 L 134.375 55.792969 C 134.339844 55.816406 134.308594 55.832031 134.269531 55.859375 C 134.175781 55.921875 134.105469 55.980469 134.035156 56.046875 C 133.757812 56.3125 133.589844 56.648438 133.464844 56.972656 C 133.339844 57.308594 133.265625 57.617188 133.195312 57.953125 C 133.125 58.277344 133.085938 58.601562 133.058594 58.914062 C 133.050781 58.996094 133.046875 59.078125 133.042969 59.15625 C 133.003906 59.390625 132.996094 59.59375 133.011719 59.746094 C 133.011719 59.761719 133.015625 59.773438 133.015625 59.789062 C 133.015625 59.976562 133.015625 60.152344 133.019531 60.320312 C 133 60.503906 133 60.660156 133.011719 60.78125 C 133.019531 60.859375 133.03125 60.921875 133.042969 60.972656 C 133.042969 60.976562 133.046875 60.980469 133.046875 60.984375 C 133.066406 61.3125 133.089844 61.589844 133.105469 61.800781 C 133.117188 61.933594 133.125 62.039062 133.128906 62.113281 C 133.054688 65.289062 133.5625 68.433594 133.644531 71.59375 C 133.722656 74.753906 134.910156 77.023438 137.792969 78.417969 C 140.183594 79.574219 141.953125 81.367188 143.097656 83.832031 C 143.59375 84.902344 144.386719 85.871094 145.191406 86.75 C 146.34375 88.003906 147.210938 88.074219 148.886719 87.222656 C 148.234375 86.328125 147.050781 85.882812 146.828125 84.679688 Z M 87.46875 106.957031 C 86.792969 107.636719 86.570312 108.214844 87 108.914062 C 88.753906 108.75 92.039062 107.710938 93.148438 106.933594 C 91.113281 105.308594 89.242188 107.425781 87.46875 106.957031 Z M 129.664062 79.828125 C 126.558594 80.117188 123.746094 79.15625 120.964844 77.9375 C 119.632812 77.355469 118.25 76.800781 116.832031 76.542969 C 115.054688 76.21875 113.363281 76.582031 112.152344 78.195312 C 112.78125 78.769531 113.265625 78.472656 113.726562 78.285156 C 115.355469 77.617188 116.917969 77.894531 118.457031 78.59375 C 119.238281 78.949219 120.003906 79.339844 120.792969 79.679688 C 122.527344 80.421875 124.246094 81.234375 126.121094 81.550781 C 127.816406 81.839844 129.46875 81.804688 131.128906 80.105469 C 130.316406 79.945312 129.980469 79.800781 129.664062 79.828125 Z M 162.636719 54.332031 C 160.886719 53.21875 159.1875 52.773438 157.59375 52.773438 C 155.914062 52.773438 154.347656 53.265625 152.953125 53.984375 C 153.0625 54.050781 153.171875 54.125 153.289062 54.207031 C 153.445312 54.3125 153.609375 54.441406 153.773438 54.582031 C 153.945312 54.71875 154.105469 54.882812 154.28125 55.042969 C 154.445312 55.214844 154.617188 55.394531 154.769531 55.589844 C 154.933594 55.777344 155.078125 55.988281 155.230469 56.191406 C 155.367188 56.40625 155.511719 56.613281 155.628906 56.832031 C 155.761719 57.046875 155.863281 57.269531 155.964844 57.484375 C 156.003906 57.570312 156.039062 57.65625 156.074219 57.742188 C 156.191406 57.695312 156.304688 57.648438 156.421875 57.605469 C 156.46875 57.585938 156.515625 57.570312 156.5625 57.554688 C 156.632812 57.53125 156.703125 57.511719 156.773438 57.488281 C 156.65625 57.148438 156.507812 56.757812 156.339844 56.378906 C 156.222656 56.121094 156.09375 55.871094 155.96875 55.636719 C 155.839844 55.40625 155.722656 55.191406 155.621094 55.003906 C 155.511719 54.820312 155.425781 54.667969 155.363281 54.5625 C 155.296875 54.453125 155.265625 54.386719 155.265625 54.386719 C 155.210938 54.285156 155.25 54.160156 155.351562 54.109375 C 155.433594 54.066406 155.53125 54.085938 155.59375 54.144531 C 155.59375 54.144531 155.644531 54.199219 155.726562 54.292969 C 155.8125 54.386719 155.933594 54.535156 156.0625 54.71875 C 156.332031 55.074219 156.621094 55.601562 156.851562 56.148438 C 156.96875 56.425781 157.078125 56.703125 157.15625 56.96875 C 157.195312 57.101562 157.234375 57.234375 157.265625 57.355469 C 157.367188 57.332031 157.46875 57.304688 157.570312 57.285156 C 157.574219 57.285156 157.582031 57.285156 157.585938 57.285156 C 157.699219 57.261719 157.8125 57.25 157.925781 57.234375 C 157.898438 57.074219 157.863281 56.902344 157.824219 56.730469 C 157.738281 56.351562 157.617188 55.984375 157.535156 55.703125 C 157.492188 55.5625 157.460938 55.445312 157.4375 55.363281 C 157.40625 55.277344 157.398438 55.226562 157.398438 55.226562 C 157.375 55.113281 157.445312 55.003906 157.558594 54.980469 C 157.640625 54.960938 157.71875 54.996094 157.765625 55.058594 C 157.765625 55.058594 157.800781 55.097656 157.84375 55.171875 C 157.894531 55.246094 157.964844 55.367188 158.027344 55.507812 C 158.167969 55.792969 158.296875 56.195312 158.382812 56.609375 C 158.421875 56.804688 158.449219 57.003906 158.464844 57.191406 C 158.507812 57.1875 158.554688 57.183594 158.597656 57.183594 C 158.628906 57.183594 158.664062 57.179688 158.695312 57.179688 C 158.722656 57.179688 158.753906 57.183594 158.78125 57.183594 C 158.8125 57.183594 158.84375 57.183594 158.875 57.183594 C 158.917969 57.183594 158.957031 57.1875 159 57.191406 C 158.984375 57.058594 158.972656 56.917969 158.957031 56.777344 C 158.925781 56.480469 158.882812 56.183594 158.871094 55.957031 C 158.855469 55.734375 158.859375 55.570312 158.859375 55.570312 C 158.863281 55.453125 158.960938 55.363281 159.078125 55.367188 C 159.15625 55.371094 159.222656 55.417969 159.257812 55.484375 L 159.257812 55.492188 C 159.257812 55.492188 159.332031 55.628906 159.394531 55.867188 C 159.457031 56.097656 159.5 56.414062 159.523438 56.730469 C 159.535156 56.90625 159.535156 57.082031 159.535156 57.246094 C 159.570312 57.25 159.601562 57.253906 159.636719 57.261719 C 159.667969 57.265625 159.699219 57.273438 159.730469 57.277344 C 159.851562 57.300781 159.976562 57.328125 160.101562 57.359375 C 160.105469 57.359375 160.109375 57.359375 160.113281 57.363281 C 160.1875 57.382812 160.261719 57.40625 160.335938 57.429688 C 160.332031 57.410156 160.332031 57.390625 160.332031 57.371094 C 160.320312 57.109375 160.289062 56.847656 160.273438 56.648438 C 160.265625 56.546875 160.261719 56.472656 160.257812 56.40625 C 160.253906 56.347656 160.253906 56.308594 160.253906 56.308594 C 160.261719 56.191406 160.363281 56.101562 160.480469 56.105469 C 160.550781 56.109375 160.613281 56.148438 160.648438 56.203125 C 160.648438 56.203125 160.667969 56.234375 160.695312 56.292969 C 160.722656 56.34375 160.761719 56.441406 160.792969 56.546875 C 160.863281 56.761719 160.898438 57.058594 160.902344 57.359375 C 160.902344 57.449219 160.894531 57.539062 160.890625 57.628906 C 160.914062 57.640625 160.941406 57.648438 160.964844 57.660156 C 160.96875 57.660156 160.972656 57.664062 160.976562 57.664062 C 161.105469 57.722656 161.230469 57.785156 161.359375 57.851562 C 161.390625 57.867188 161.421875 57.882812 161.453125 57.902344 C 161.578125 57.972656 161.707031 58.042969 161.832031 58.125 C 161.835938 58.125 161.835938 58.125 161.835938 58.128906 C 161.964844 58.210938 162.09375 58.296875 162.222656 58.394531 C 162.253906 58.414062 162.28125 58.4375 162.3125 58.460938 C 162.4375 58.554688 162.566406 58.65625 162.691406 58.761719 C 162.695312 58.765625 162.695312 58.765625 162.695312 58.765625 C 162.824219 58.875 162.949219 58.992188 163.078125 59.113281 C 163.105469 59.140625 163.136719 59.171875 163.167969 59.199219 C 163.292969 59.324219 163.417969 59.453125 163.546875 59.589844 C 163.546875 59.589844 163.546875 59.59375 163.546875 59.59375 C 163.671875 59.730469 163.796875 59.875 163.921875 60.027344 C 163.953125 60.066406 163.984375 60.101562 164.011719 60.136719 C 164.136719 60.292969 164.261719 60.453125 164.386719 60.621094 C 164.511719 60.789062 164.632812 60.96875 164.757812 61.152344 C 164.785156 61.195312 164.816406 61.238281 164.84375 61.285156 C 164.96875 61.472656 165.089844 61.664062 165.210938 61.863281 C 165.210938 61.863281 165.210938 61.863281 165.210938 61.867188 C 165.332031 62.066406 165.453125 62.277344 165.574219 62.496094 C 165.601562 62.546875 165.632812 62.601562 165.660156 62.65625 C 165.78125 62.875 165.898438 63.101562 166.015625 63.335938 C 166.015625 63.339844 166.015625 63.339844 166.019531 63.339844 C 166.136719 63.574219 166.25 63.824219 166.367188 64.074219 C 166.398438 64.136719 166.425781 64.199219 166.453125 64.265625 C 166.570312 64.519531 166.683594 64.78125 166.800781 65.054688 C 166.800781 65.054688 166.800781 65.054688 166.800781 65.058594 C 166.914062 65.328125 167.027344 65.613281 167.136719 65.902344 C 167.167969 65.976562 167.195312 66.050781 167.222656 66.121094 C 167.335938 66.417969 167.445312 66.71875 167.554688 67.03125 C 170.804688 76.265625 168.210938 81.390625 164.398438 84.238281 C 164.433594 84.324219 164.46875 84.410156 164.503906 84.5 C 164.578125 84.722656 164.632812 84.96875 164.671875 85.21875 C 164.699219 85.464844 164.714844 85.71875 164.699219 85.953125 C 164.683594 86.1875 164.65625 86.402344 164.613281 86.585938 C 164.570312 86.765625 164.519531 86.914062 164.480469 87.015625 C 164.441406 87.117188 164.417969 87.175781 164.417969 87.175781 C 164.375 87.28125 164.257812 87.332031 164.152344 87.289062 C 164.058594 87.25 164.011719 87.152344 164.03125 87.054688 L 164.035156 87.039062 C 164.035156 87.039062 164.046875 86.988281 164.066406 86.890625 C 164.089844 86.796875 164.117188 86.664062 164.132812 86.5 C 164.179688 86.171875 164.179688 85.730469 164.109375 85.300781 C 164.066406 85.046875 163.996094 84.800781 163.921875 84.578125 C 163.726562 84.710938 163.527344 84.839844 163.328125 84.960938 C 163.394531 85.128906 163.449219 85.3125 163.472656 85.503906 C 163.492188 85.621094 163.507812 85.738281 163.527344 85.867188 C 163.539062 85.992188 163.554688 86.117188 163.5625 86.246094 C 163.605469 86.75 163.582031 87.261719 163.539062 87.636719 C 163.503906 88.015625 163.445312 88.261719 163.445312 88.261719 L 163.445312 88.269531 C 163.417969 88.378906 163.3125 88.449219 163.199219 88.421875 C 163.097656 88.398438 163.03125 88.300781 163.042969 88.195312 C 163.042969 88.195312 163.074219 87.957031 163.09375 87.601562 C 163.109375 87.242188 163.101562 86.765625 163.050781 86.292969 C 163.039062 86.175781 163.023438 86.058594 163.003906 85.941406 C 162.984375 85.832031 162.964844 85.714844 162.941406 85.605469 C 162.90625 85.472656 162.871094 85.355469 162.832031 85.253906 C 162.511719 85.433594 162.191406 85.597656 161.867188 85.753906 C 161.914062 85.851562 161.957031 85.960938 162 86.078125 C 162.058594 86.222656 162.101562 86.386719 162.152344 86.550781 C 162.242188 86.882812 162.300781 87.246094 162.34375 87.609375 C 162.359375 87.792969 162.378906 87.976562 162.378906 88.15625 C 162.390625 88.335938 162.378906 88.515625 162.371094 88.6875 C 162.359375 88.859375 162.347656 89.023438 162.324219 89.179688 C 162.304688 89.335938 162.285156 89.484375 162.253906 89.617188 C 162.253906 89.628906 162.25 89.636719 162.246094 89.648438 C 164.113281 88.859375 166.011719 87.519531 167.761719 85.363281 C 174.9375 76.503906 171.246094 59.820312 162.636719 54.332031 Z M 159.425781 90.464844 C 159.433594 90.292969 159.449219 90.117188 159.453125 89.9375 C 159.460938 89.75 159.449219 89.558594 159.445312 89.367188 C 159.429688 89.179688 159.417969 88.988281 159.386719 88.804688 C 159.363281 88.621094 159.320312 88.441406 159.292969 88.265625 C 159.25 88.09375 159.214844 87.921875 159.167969 87.765625 C 159.121094 87.609375 159.082031 87.460938 159.035156 87.324219 C 158.992188 87.1875 158.945312 87.066406 158.902344 86.964844 C 158.890625 86.933594 158.882812 86.90625 158.871094 86.878906 C 158.660156 86.941406 158.449219 87 158.242188 87.054688 C 158.246094 87.339844 158.242188 87.625 158.234375 87.90625 C 158.234375 87.972656 158.230469 88.039062 158.226562 88.105469 C 158.214844 88.324219 158.203125 88.546875 158.1875 88.765625 C 158.179688 88.835938 158.175781 88.90625 158.167969 88.976562 C 158.148438 89.203125 158.121094 89.425781 158.09375 89.652344 C 158.085938 89.703125 158.078125 89.761719 158.070312 89.8125 C 158.03125 90.089844 157.984375 90.359375 157.933594 90.632812 C 158.417969 90.605469 158.917969 90.550781 159.425781 90.464844 Z M 160.574219 90.21875 C 160.589844 90.101562 160.609375 89.957031 160.621094 89.789062 C 160.671875 89.347656 160.671875 88.753906 160.613281 88.167969 C 160.578125 87.878906 160.523438 87.585938 160.46875 87.320312 C 160.433594 87.183594 160.410156 87.054688 160.375 86.933594 C 160.34375 86.808594 160.3125 86.695312 160.28125 86.585938 C 160.269531 86.535156 160.253906 86.480469 160.238281 86.433594 C 159.9375 86.542969 159.640625 86.644531 159.34375 86.738281 C 159.402344 86.855469 159.46875 86.992188 159.527344 87.136719 C 159.59375 87.277344 159.648438 87.433594 159.703125 87.605469 C 159.765625 87.769531 159.804688 87.953125 159.851562 88.140625 C 159.9375 88.519531 159.984375 88.929688 160.007812 89.339844 C 160.007812 89.546875 160.019531 89.75 160.003906 89.953125 C 160.003906 90.09375 159.988281 90.226562 159.976562 90.359375 C 160.171875 90.320312 160.371094 90.273438 160.574219 90.21875 Z M 161.378906 85.976562 C 161.15625 86.074219 160.9375 86.167969 160.714844 86.253906 C 160.738281 86.304688 160.757812 86.359375 160.78125 86.414062 C 160.875 86.632812 160.957031 86.902344 161.027344 87.191406 C 161.09375 87.480469 161.140625 87.796875 161.171875 88.113281 C 161.195312 88.429688 161.210938 88.75 161.191406 89.046875 C 161.171875 89.34375 161.148438 89.621094 161.105469 89.855469 C 161.089844 89.9375 161.074219 90.011719 161.058594 90.082031 C 161.28125 90.011719 161.503906 89.9375 161.730469 89.851562 C 161.742188 89.757812 161.761719 89.652344 161.773438 89.535156 C 161.792969 89.410156 161.804688 89.273438 161.816406 89.128906 C 161.832031 88.984375 161.832031 88.828125 161.835938 88.667969 C 161.835938 88.351562 161.824219 88.011719 161.785156 87.671875 C 161.742188 87.335938 161.671875 87.003906 161.597656 86.699219 C 161.550781 86.546875 161.515625 86.394531 161.46875 86.257812 C 161.4375 86.160156 161.40625 86.066406 161.378906 85.976562 Z M 158 77.027344 C 158.539062 78.121094 158.539062 79.414062 158.328125 80.601562 C 158.082031 82.019531 158.074219 83.425781 158.136719 84.84375 C 160.804688 84.089844 164.140625 82.550781 165.789062 79.445312 C 167.324219 76.546875 167.238281 72.613281 165.527344 67.75 C 164.175781 63.914062 161.894531 59.34375 158.695312 59.34375 C 158.058594 59.34375 157.371094 59.515625 156.640625 59.851562 C 156.648438 59.910156 156.652344 59.945312 156.652344 59.945312 C 156.671875 60.054688 156.59375 60.160156 156.480469 60.175781 C 156.382812 60.191406 156.292969 60.128906 156.261719 60.039062 C 156.035156 60.15625 155.804688 60.289062 155.570312 60.441406 C 155.496094 60.488281 155.414062 60.53125 155.332031 60.570312 C 156.34375 63.09375 156.753906 65.824219 156.722656 68.6875 C 156.691406 71.554688 156.6875 74.363281 158 77.027344 Z M 156.285156 86.171875 C 156.28125 86.148438 156.28125 86.125 156.277344 86.101562 C 156.167969 84.8125 156.179688 83.527344 156.113281 82.253906 C 156 80.117188 156.152344 77.902344 155.410156 75.851562 C 154.953125 74.597656 154.800781 73.351562 154.808594 72.050781 C 154.816406 70.582031 154.867188 69.113281 154.800781 67.648438 C 154.6875 65.160156 154.324219 62.695312 153.320312 60.480469 C 152.945312 59.660156 152.484375 58.871094 151.910156 58.128906 C 151.09375 57.078125 150.269531 56.027344 149.433594 54.984375 C 148.449219 53.75 147.453125 52.53125 146.429688 51.332031 C 146.390625 51.316406 144.582031 50.738281 141.5625 49.980469 C 137.871094 49.054688 132.375 47.863281 126.082031 47.101562 L 126.066406 47.152344 L 125.101562 46.988281 C 124.296875 46.898438 123.480469 46.816406 122.648438 46.742188 C 111.808594 45.777344 99.257812 46.40625 90.539062 49.980469 C 89.222656 50.523438 87.988281 51.128906 86.863281 51.8125 C 86.167969 53.121094 85.523438 54.453125 84.949219 55.820312 C 84.96875 55.808594 84.988281 55.796875 85.007812 55.792969 L 85.027344 55.789062 C 85.027344 55.789062 85.070312 55.78125 85.15625 55.761719 C 85.238281 55.742188 85.363281 55.710938 85.515625 55.648438 C 85.820312 55.523438 86.222656 55.261719 86.695312 54.886719 C 86.933594 54.703125 87.203125 54.492188 87.507812 54.296875 C 87.816406 54.101562 88.15625 53.921875 88.523438 53.773438 C 89.257812 53.472656 90.101562 53.308594 90.949219 53.316406 C 91.371094 53.320312 91.800781 53.367188 92.210938 53.457031 C 92.613281 53.542969 93.011719 53.675781 93.371094 53.835938 C 94.09375 54.171875 94.710938 54.605469 95.15625 55.054688 C 95.617188 55.496094 95.917969 55.933594 96.109375 56.253906 C 96.207031 56.414062 96.273438 56.542969 96.3125 56.625 C 96.355469 56.710938 96.378906 56.757812 96.378906 56.757812 C 96.429688 56.859375 96.386719 56.980469 96.285156 57.03125 C 96.191406 57.078125 96.078125 57.042969 96.023438 56.957031 C 96.023438 56.957031 95.996094 56.914062 95.945312 56.832031 C 95.898438 56.746094 95.824219 56.632812 95.730469 56.496094 C 95.53125 56.222656 95.230469 55.828125 94.796875 55.441406 C 94.363281 55.050781 93.804688 54.652344 93.140625 54.363281 C 92.808594 54.21875 92.457031 54.101562 92.082031 54.015625 C 91.710938 53.933594 91.332031 53.890625 90.941406 53.882812 C 90.167969 53.867188 89.398438 54.019531 88.71875 54.273438 C 88.378906 54.398438 88.0625 54.5625 87.777344 54.734375 C 87.492188 54.90625 87.238281 55.101562 86.984375 55.277344 C 86.496094 55.640625 86.03125 55.917969 85.667969 56.046875 C 85.492188 56.113281 85.34375 56.148438 85.242188 56.167969 C 85.136719 56.1875 85.085938 56.195312 85.085938 56.195312 C 84.976562 56.210938 84.875 56.140625 84.855469 56.035156 C 84.648438 56.535156 84.449219 57.035156 84.261719 57.546875 C 84.101562 57.984375 83.601562 58.410156 84.203125 58.921875 C 85.011719 58.824219 85.542969 58.230469 86.140625 57.761719 C 87.238281 56.90625 88.441406 56.257812 89.773438 55.847656 C 91.8125 55.222656 92.765625 55.480469 93.992188 57.21875 C 94.71875 58.246094 95.285156 59.382812 95.929688 60.476562 C 97.089844 60.234375 97.628906 59.476562 98.074219 58.625 C 98.351562 58.089844 98.542969 57.5 98.878906 57.003906 C 99.917969 55.464844 101.445312 55.554688 102.660156 57.191406 C 101.90625 57.582031 101.203125 56.582031 100.144531 57.347656 C 99.355469 58.136719 99.359375 59.847656 98.171875 60.800781 C 97.027344 61.71875 95.875 62.617188 94.703125 63.492188 C 93.550781 64.359375 93.199219 65.542969 93.273438 66.910156 C 93.417969 69.5625 92.191406 71.566406 90.273438 73.207031 C 88.808594 74.460938 87.058594 75.175781 85.238281 75.738281 C 84.664062 75.917969 84.078125 76.132812 83.441406 75.488281 C 83.445312 74.679688 83.4375 73.78125 83.070312 72.871094 C 81.890625 69.957031 81.308594 66.941406 81.996094 63.773438 C 82.128906 63.15625 82.421875 62.449219 81.796875 61.574219 C 80.488281 63.074219 79.398438 64.464844 79.691406 66.59375 C 80.085938 69.433594 80.027344 72.28125 79.320312 75.078125 C 78.898438 76.75 78.351562 78.394531 77.992188 80.078125 C 77.253906 83.554688 78.621094 86.785156 81.363281 88.464844 C 81.386719 88.449219 81.40625 88.4375 81.425781 88.425781 C 81.5 88.375 81.578125 88.316406 81.664062 88.25 C 81.832031 88.113281 82.015625 87.9375 82.195312 87.726562 C 82.28125 87.621094 82.363281 87.503906 82.445312 87.382812 C 82.523438 87.261719 82.597656 87.125 82.664062 87 C 82.734375 86.851562 82.789062 86.722656 82.84375 86.582031 C 82.898438 86.4375 82.945312 86.296875 82.988281 86.160156 C 83.070312 85.882812 83.132812 85.613281 83.1875 85.382812 C 83.285156 84.917969 83.347656 84.605469 83.347656 84.605469 C 83.371094 84.492188 83.480469 84.421875 83.589844 84.445312 C 83.695312 84.46875 83.761719 84.566406 83.75 84.667969 L 83.75 84.671875 C 83.75 84.671875 83.71875 84.988281 83.640625 85.472656 C 83.601562 85.710938 83.550781 85.996094 83.472656 86.296875 C 83.433594 86.445312 83.386719 86.601562 83.335938 86.757812 C 83.285156 86.910156 83.21875 87.082031 83.15625 87.222656 C 83.085938 87.386719 83.007812 87.53125 82.917969 87.679688 C 82.832031 87.824219 82.738281 87.960938 82.636719 88.089844 C 82.4375 88.34375 82.207031 88.554688 81.988281 88.699219 C 81.953125 88.722656 81.921875 88.738281 81.890625 88.757812 C 82.117188 88.871094 82.347656 88.976562 82.589844 89.074219 C 83.527344 88.65625 83.828125 87.6875 84.3125 86.90625 C 86.042969 84.105469 85.355469 82.257812 82.292969 81.074219 C 81.542969 80.785156 80.535156 80.945312 80.082031 79.96875 C 80.179688 79.71875 80.199219 79.390625 80.371094 79.265625 C 82.351562 77.773438 84.605469 77.40625 86.964844 77.941406 C 88.519531 78.292969 89.304688 79.699219 89.011719 81.339844 C 88.808594 82.445312 88.363281 83.480469 87.769531 84.445312 C 86.554688 86.429688 85.328125 88.410156 84.164062 90.425781 C 83.285156 91.949219 83.304688 92.441406 84.105469 93.992188 C 84.910156 92.300781 85.71875 90.90625 87.480469 89.949219 C 89.769531 88.707031 90.949219 90.574219 92.476562 91.085938 C 93.398438 90.703125 93.753906 89.652344 94.847656 89.777344 C 96.046875 90.027344 96.46875 91.460938 97.609375 91.863281 C 99.515625 91.164062 99.527344 91.140625 101.46875 91.972656 C 102.050781 92.222656 102.617188 92.304688 103.21875 92.253906 C 104.566406 92.144531 105.6875 92.394531 106.664062 93.53125 C 107.503906 94.511719 109.378906 93.957031 110 95.535156 C 110.183594 95.996094 110.523438 96.445312 111.269531 96.578125 C 111.527344 96.488281 111.9375 96.382812 112.324219 96.210938 C 113.363281 95.753906 114.332031 96.015625 114.773438 96.957031 C 115.679688 98.886719 117.726562 99.109375 119.222656 100.527344 C 119.996094 98.511719 120.046875 96.625 120.328125 94.800781 C 120.449219 94.027344 120.75 93.339844 121.109375 92.675781 C 120.886719 92.414062 120.605469 92.113281 120.308594 91.824219 C 119.953125 91.472656 119.570312 91.152344 119.285156 90.902344 C 119.140625 90.78125 119.023438 90.679688 118.941406 90.605469 C 118.855469 90.53125 118.808594 90.488281 118.808594 90.488281 C 118.726562 90.40625 118.722656 90.273438 118.804688 90.195312 C 118.867188 90.128906 118.960938 90.113281 119.035156 90.148438 C 119.035156 90.148438 119.097656 90.175781 119.195312 90.230469 C 119.292969 90.28125 119.441406 90.367188 119.605469 90.480469 C 119.9375 90.695312 120.339844 91.042969 120.710938 91.417969 C 120.960938 91.675781 121.1875 91.949219 121.382812 92.199219 C 121.578125 91.863281 121.78125 91.53125 121.976562 91.195312 C 121.972656 91.191406 121.972656 91.191406 121.96875 91.1875 C 121.847656 91.042969 121.703125 90.894531 121.5625 90.742188 C 121.265625 90.445312 120.945312 90.136719 120.605469 89.851562 C 120.429688 89.710938 120.261719 89.566406 120.082031 89.441406 C 119.910156 89.308594 119.726562 89.1875 119.558594 89.066406 C 119.386719 88.949219 119.21875 88.835938 119.054688 88.738281 C 118.890625 88.640625 118.734375 88.546875 118.59375 88.460938 C 118.449219 88.375 118.316406 88.300781 118.195312 88.238281 C 118.078125 88.175781 117.976562 88.117188 117.882812 88.074219 C 117.707031 87.980469 117.605469 87.925781 117.605469 87.925781 C 117.507812 87.875 117.46875 87.75 117.519531 87.652344 C 117.566406 87.558594 117.675781 87.519531 117.765625 87.550781 C 117.765625 87.550781 117.875 87.589844 118.0625 87.65625 C 118.246094 87.722656 118.53125 87.835938 118.839844 87.992188 C 119 88.066406 119.167969 88.15625 119.339844 88.257812 C 119.515625 88.355469 119.691406 88.472656 119.875 88.589844 C 120.242188 88.828125 120.609375 89.117188 120.96875 89.417969 C 121.140625 89.574219 121.320312 89.726562 121.480469 89.890625 C 121.648438 90.046875 121.800781 90.214844 121.949219 90.375 C 122.050781 90.492188 122.148438 90.601562 122.242188 90.714844 C 122.449219 90.320312 122.636719 89.914062 122.769531 89.484375 C 121.878906 88.253906 120.757812 87.484375 119.59375 86.734375 C 118.445312 85.996094 116.929688 86.8125 115.6875 85.882812 C 117.621094 84.726562 119.292969 84.671875 120.894531 85.636719 C 121.332031 85.902344 121.742188 86.226562 122.125 86.570312 C 125.480469 89.558594 129.125 89.960938 133.085938 87.882812 C 133.84375 87.484375 134.667969 87.210938 135.472656 86.90625 C 136.707031 86.441406 137.996094 86.464844 139.292969 86.488281 C 140.46875 86.511719 141.25 87.0625 141.632812 88.160156 C 141.972656 89.136719 142.28125 90.128906 142.582031 91.117188 C 143.015625 92.535156 143.960938 93.242188 145.429688 93.289062 C 146.972656 93.339844 148.511719 93.320312 150.015625 92.996094 C 150.695312 93.761719 150.589844 94.230469 150.125 94.605469 C 149.5625 95.054688 148.871094 95.171875 148.175781 95.175781 C 146.707031 95.183594 145.492188 95.589844 144.730469 96.996094 C 144.5 97.421875 144.007812 97.722656 143.609375 98.042969 C 142.734375 98.738281 141.921875 99.5 141.132812 100.289062 C 141.105469 100.402344 141.070312 100.542969 141.027344 100.726562 C 140.941406 101.089844 140.84375 101.574219 140.8125 102.070312 C 140.773438 102.5625 140.792969 103.0625 140.84375 103.429688 C 140.863281 103.617188 140.890625 103.769531 140.914062 103.878906 C 140.933594 103.988281 140.941406 104.046875 140.941406 104.046875 L 140.941406 104.050781 C 140.964844 104.160156 140.890625 104.269531 140.777344 104.289062 C 140.679688 104.304688 140.585938 104.25 140.550781 104.160156 C 140.550781 104.160156 140.453125 103.910156 140.363281 103.511719 C 140.320312 103.316406 140.289062 103.082031 140.261719 102.828125 C 140.234375 102.578125 140.234375 102.304688 140.242188 102.035156 C 140.261719 101.765625 140.289062 101.492188 140.335938 101.242188 C 140.347656 101.179688 140.363281 101.125 140.378906 101.0625 C 140.253906 101.195312 140.125 101.328125 140 101.464844 C 139.996094 101.476562 139.992188 101.488281 139.988281 101.503906 C 139.945312 101.625 139.898438 101.765625 139.855469 101.925781 C 139.808594 102.082031 139.769531 102.253906 139.722656 102.433594 C 139.675781 102.613281 139.644531 102.808594 139.601562 103.003906 C 139.570312 103.207031 139.53125 103.410156 139.511719 103.621094 C 139.476562 103.835938 139.46875 104.050781 139.453125 104.265625 C 139.449219 104.484375 139.4375 104.699219 139.445312 104.914062 C 139.449219 105.125 139.464844 105.335938 139.476562 105.539062 C 139.5 105.742188 139.511719 105.9375 139.542969 106.121094 C 139.570312 106.304688 139.601562 106.480469 139.636719 106.640625 C 139.667969 106.800781 139.703125 106.945312 139.734375 107.074219 C 139.765625 107.203125 139.796875 107.3125 139.828125 107.402344 C 139.878906 107.585938 139.910156 107.691406 139.910156 107.691406 L 139.914062 107.703125 C 139.945312 107.8125 139.882812 107.925781 139.777344 107.957031 C 139.675781 107.988281 139.570312 107.933594 139.53125 107.835938 C 139.53125 107.835938 139.488281 107.730469 139.414062 107.542969 C 139.378906 107.449219 139.339844 107.335938 139.296875 107.203125 C 139.253906 107.070312 139.207031 106.917969 139.164062 106.75 C 139.117188 106.585938 139.078125 106.402344 139.042969 106.207031 C 139 106.015625 138.976562 105.804688 138.945312 105.59375 C 138.921875 105.378906 138.894531 105.15625 138.894531 104.929688 C 138.878906 104.703125 138.886719 104.472656 138.890625 104.242188 C 138.910156 103.78125 138.957031 103.324219 139.039062 102.898438 C 139.078125 102.710938 139.117188 102.53125 139.164062 102.359375 C 139.066406 102.464844 138.976562 102.570312 138.886719 102.675781 C 138.886719 102.679688 138.886719 102.679688 138.882812 102.683594 C 138.824219 102.796875 138.773438 102.933594 138.714844 103.089844 C 138.683594 103.167969 138.652344 103.25 138.617188 103.335938 C 138.589844 103.425781 138.558594 103.519531 138.527344 103.621094 C 138.460938 103.816406 138.40625 104.035156 138.351562 104.265625 C 138.289062 104.496094 138.257812 104.746094 138.210938 105 C 138.1875 105.261719 138.144531 105.527344 138.140625 105.800781 C 138.121094 106.074219 138.136719 106.347656 138.140625 106.625 C 138.167969 106.902344 138.183594 107.179688 138.234375 107.449219 C 138.273438 107.71875 138.339844 107.980469 138.394531 108.234375 C 138.472656 108.484375 138.53125 108.730469 138.621094 108.949219 C 138.703125 109.175781 138.789062 109.382812 138.878906 109.570312 C 138.925781 109.664062 138.964844 109.757812 139.007812 109.84375 C 139.054688 109.925781 139.097656 110.003906 139.136719 110.078125 C 139.21875 110.226562 139.292969 110.355469 139.363281 110.457031 C 139.496094 110.660156 139.574219 110.773438 139.574219 110.773438 L 139.582031 110.789062 C 139.644531 110.882812 139.621094 111.007812 139.527344 111.070312 C 139.4375 111.132812 139.316406 111.109375 139.25 111.023438 C 139.25 111.023438 139.164062 110.90625 139.007812 110.699219 C 138.925781 110.597656 138.84375 110.464844 138.746094 110.3125 C 138.699219 110.234375 138.648438 110.15625 138.59375 110.070312 C 138.542969 109.980469 138.496094 109.886719 138.445312 109.789062 C 138.335938 109.59375 138.242188 109.371094 138.144531 109.136719 C 138.042969 108.902344 137.96875 108.640625 137.878906 108.378906 C 137.8125 108.109375 137.730469 107.832031 137.691406 107.542969 C 137.628906 107.253906 137.609375 106.957031 137.578125 106.664062 C 137.570312 106.367188 137.550781 106.066406 137.570312 105.777344 C 137.574219 105.480469 137.613281 105.195312 137.644531 104.917969 C 137.695312 104.660156 137.734375 104.410156 137.800781 104.175781 C 137.355469 104.925781 137.007812 105.734375 136.792969 106.609375 C 136.40625 108.191406 137.6875 111.289062 138.917969 111.808594 C 140.191406 112.34375 144.523438 111.363281 145.414062 110.195312 C 146.507812 108.761719 147.675781 107.320312 148.320312 105.628906 C 149.71875 101.96875 151.628906 98.625 153.863281 95.429688 C 154.792969 94.097656 155.449219 92.679688 155.855469 91.191406 C 156.289062 89.589844 156.425781 87.910156 156.285156 86.171875 Z M 115.90625 103.992188 C 116.917969 103.851562 117.761719 103.421875 117.824219 102.289062 C 117.882812 101.253906 117.339844 100.523438 116.292969 100.253906 C 114.8125 102.480469 114.808594 102.546875 115.90625 103.992188 Z M 114.730469 106.835938 C 114.785156 107.296875 115.101562 107.601562 115.601562 107.515625 C 115.65625 107.503906 115.710938 107.492188 115.761719 107.476562 C 116.121094 107.367188 116.351562 107.109375 116.304688 106.648438 C 116.203125 106.246094 115.941406 106.121094 115.636719 106.113281 C 115.585938 106.109375 115.535156 106.113281 115.480469 106.117188 C 115.429688 106.121094 115.375 106.128906 115.324219 106.140625 C 114.96875 106.199219 114.6875 106.46875 114.730469 106.835938 Z M 112.589844 102.382812 C 114.730469 100.710938 114.851562 99.75 113.160156 97.5 C 111.21875 97.652344 110.890625 99.167969 110.496094 100.617188 C 110.992188 101.546875 111.546875 102.273438 112.589844 102.382812 Z M 110.554688 106.328125 C 111.207031 106.710938 111.839844 107.097656 112.957031 106.8125 C 113.097656 105.570312 113.035156 104.566406 111.621094 104.039062 C 110.808594 104.558594 110.289062 105.199219 110.554688 106.328125 Z M 108.828125 102.027344 C 107.355469 102.167969 106.925781 103.0625 106.808594 104.242188 C 108.140625 105.214844 108.496094 105.316406 108.953125 104.734375 C 109.675781 103.820312 109.699219 102.910156 108.828125 102.027344 Z M 107.828125 95.308594 C 106.644531 96.03125 106.53125 97.125 106.335938 98.105469 C 106.152344 99.027344 107.070312 100.152344 107.886719 100.15625 C 108.859375 100.164062 109.222656 99.40625 109.371094 98.640625 C 109.636719 97.261719 109.292969 96.089844 107.828125 95.308594 Z M 104.617188 99.589844 C 103.65625 100.429688 103.621094 101.375 103.605469 102.316406 C 103.597656 102.875 103.835938 103.335938 104.402344 103.488281 C 105.125 103.679688 105.527344 103.183594 105.765625 102.617188 C 106.292969 101.371094 105.652344 100.515625 104.617188 99.589844 Z M 102.980469 95.605469 C 102.964844 96.191406 102.523438 96.730469 102.898438 97.617188 C 103.925781 98.234375 104.46875 97.546875 104.980469 96.851562 C 105.535156 96.097656 105.664062 95.269531 105.097656 94.472656 C 104.589844 93.769531 103.941406 93.46875 103.210938 94.066406 C 102.769531 94.578125 102.992188 95.109375 102.980469 95.605469 Z M 92.273438 98.457031 C 92.75 99.632812 92.503906 101.066406 94.074219 101.5625 C 95.285156 100.757812 95.113281 99.746094 94.734375 98.550781 C 94 98.421875 93.394531 97.816406 92.273438 98.457031 Z M 96.398438 93.90625 C 96.171875 92.894531 95.753906 91.96875 94.777344 91.445312 C 93.097656 93.023438 93.042969 93.246094 93.621094 96.160156 C 96.039062 96.738281 96.875 96.035156 96.398438 93.90625 Z M 96.816406 98.171875 C 95.898438 99.144531 96.183594 100.355469 96.828125 101.527344 C 98.75 101.441406 98.554688 99.902344 98.976562 98.847656 C 98.363281 97.96875 97.585938 97.355469 96.816406 98.171875 Z M 101.347656 98.636719 C 100.359375 99.417969 99.8125 100.40625 99.75 101.65625 C 101.289062 102.476562 101.535156 102.5 102 101.910156 C 102.8125 100.878906 102.625 99.847656 101.347656 98.636719 Z M 101.613281 95.511719 C 101.15625 94.363281 101.042969 93.140625 99.628906 92.625 C 99.359375 92.804688 99.023438 92.929688 98.832031 93.175781 C 97.898438 94.359375 97.65625 95.792969 98.230469 96.425781 C 98.8125 97.066406 99.726562 96.859375 101.613281 95.511719 Z M 85.601562 100.121094 C 84.429688 101.230469 84.175781 102.417969 84.855469 103.492188 C 85.410156 104.371094 86.074219 104.277344 86.90625 103.425781 C 86.625 102.195312 86.523438 101.007812 85.601562 100.121094 Z M 87.421875 91.890625 C 85.398438 93.492188 85.222656 95.84375 86.910156 97.3125 C 87.40625 97.207031 87.667969 96.835938 87.65625 96.402344 C 87.609375 94.921875 88.019531 93.398438 87.421875 91.890625 Z M 88.246094 99.066406 C 87.148438 99.398438 87.132812 100.113281 87.371094 100.898438 C 87.613281 101.710938 87.679688 102.722656 89.125 102.8125 C 88.890625 101.4375 89.058594 100.179688 88.246094 99.066406 Z M 90.636719 98.628906 C 89.5 99.980469 89.574219 100.554688 91.0625 101.996094 C 91.898438 100.675781 91.851562 100.289062 90.636719 98.628906 Z M 91.808594 95.589844 C 91.996094 94.632812 91.632812 93.734375 91.300781 92.867188 C 90.980469 92.03125 90.414062 91.429688 89.0625 91.355469 C 88.5 93.4375 88.25 95.339844 89.324219 97.273438 C 90.574219 97.058594 91.5625 96.832031 91.808594 95.589844 Z M 138.960938 100.371094 C 140.175781 99.160156 141.527344 98.082031 142.832031 96.964844 C 143.277344 96.578125 143.871094 96.320312 143.832031 95.402344 C 143.585938 95.230469 143.335938 95.054688 143.082031 94.875 C 142.996094 94.933594 142.902344 95.003906 142.800781 95.078125 C 142.605469 95.210938 142.386719 95.367188 142.15625 95.550781 C 141.917969 95.726562 141.671875 95.929688 141.410156 96.140625 C 141.144531 96.351562 140.882812 96.59375 140.605469 96.832031 C 140.339844 97.089844 140.054688 97.339844 139.785156 97.617188 C 139.503906 97.886719 139.242188 98.179688 138.972656 98.464844 C 138.71875 98.761719 138.457031 99.054688 138.21875 99.363281 C 137.972656 99.660156 137.75 99.96875 137.527344 100.265625 C 137.316406 100.566406 137.105469 100.855469 136.925781 101.144531 C 136.742188 101.425781 136.574219 101.699219 136.425781 101.953125 C 136.273438 102.207031 136.140625 102.441406 136.027344 102.65625 C 135.910156 102.867188 135.8125 103.050781 135.738281 103.207031 C 135.585938 103.515625 135.496094 103.695312 135.496094 103.695312 L 135.496094 103.699219 C 135.445312 103.800781 135.324219 103.84375 135.222656 103.792969 C 135.125 103.742188 135.082031 103.625 135.125 103.527344 C 135.125 103.527344 135.207031 103.34375 135.351562 103.019531 C 135.421875 102.859375 135.515625 102.664062 135.625 102.445312 C 135.730469 102.222656 135.855469 101.976562 136.003906 101.710938 C 136.144531 101.445312 136.316406 101.164062 136.496094 100.867188 C 136.671875 100.570312 136.882812 100.269531 137.089844 99.953125 C 137.3125 99.644531 137.535156 99.324219 137.785156 99.015625 C 138.027344 98.699219 138.292969 98.398438 138.554688 98.089844 C 138.828125 97.792969 139.09375 97.488281 139.378906 97.210938 C 139.65625 96.925781 139.945312 96.660156 140.226562 96.40625 C 140.515625 96.160156 140.785156 95.917969 141.0625 95.707031 C 141.332031 95.488281 141.59375 95.292969 141.84375 95.125 C 142.089844 94.945312 142.324219 94.792969 142.53125 94.664062 C 142.578125 94.632812 142.621094 94.605469 142.664062 94.578125 C 142.070312 94.15625 141.457031 93.726562 140.84375 93.292969 C 139.96875 93.769531 139.226562 94.195312 138.464844 94.585938 C 137.246094 95.207031 136.046875 96.042969 134.585938 95.554688 C 133.054688 95.042969 132.792969 93.675781 132.460938 92.285156 C 132.160156 91.027344 131.492188 90.707031 130.148438 90.816406 C 129.722656 90.851562 129.300781 90.9375 128.875 90.992188 C 126.59375 91.277344 126.40625 91.417969 126.355469 93.683594 C 126.296875 96.269531 126.378906 98.863281 126.3125 101.449219 C 126.214844 105.410156 124.929688 109.054688 123.136719 112.535156 C 122.875 113.042969 122.59375 113.644531 121.539062 113.53125 C 120.949219 111.332031 123.441406 109.652344 122.898438 107.304688 C 121.78125 107.695312 120.78125 107.953125 119.863281 108.386719 C 117.453125 109.515625 115.046875 109.441406 112.589844 108.617188 C 110.382812 107.878906 108.273438 106.925781 106.195312 105.886719 C 103.414062 104.492188 100.519531 103.453125 97.414062 103.03125 C 93.285156 102.472656 89.664062 104.121094 86.019531 105.65625 C 84.945312 106.109375 84.597656 107.085938 84.605469 108.207031 C 84.617188 109.683594 84.472656 111.144531 83.878906 112.515625 C 82.453125 115.796875 85.292969 119.648438 87.996094 120.273438 C 88.496094 120.390625 89.117188 120.941406 89.585938 120.074219 C 89.339844 119.0625 87.804688 118.96875 87.824219 117.636719 C 88.550781 117.503906 89.363281 117.09375 89.992188 117.289062 C 92.273438 118.003906 94.382812 117.367188 96.5625 116.863281 C 98.617188 116.382812 99.175781 116.855469 99.613281 119.050781 C 100.339844 119.410156 101.125 119.226562 101.882812 119.226562 C 104.632812 119.214844 107.382812 119.160156 110.128906 119.144531 C 113.742188 119.125 117.328125 119.328125 120.878906 120.101562 C 122.121094 120.371094 123.441406 120.292969 124.730469 120.320312 C 126.359375 120.351562 127.648438 119.644531 128.894531 118.585938 C 132.058594 115.898438 133.867188 112.46875 134.667969 108.464844 C 135.296875 105.316406 136.714844 102.613281 138.960938 100.371094 Z M 93.628906 47.121094 C 94.378906 46.910156 95.167969 46.695312 95.996094 46.488281 C 94.859375 43.683594 84.28125 17.667969 80.488281 8.5625 C 79.59375 6.410156 78.410156 4.890625 77.191406 4.269531 C 76.761719 4.445312 76.25 4.746094 75.96875 5.222656 C 75.710938 5.660156 75.691406 6.191406 75.90625 6.847656 C 76.992188 10.121094 80.570312 16.355469 80.605469 16.417969 C 80.804688 16.761719 80.6875 17.207031 80.34375 17.40625 C 80.230469 17.472656 80.105469 17.503906 79.984375 17.503906 C 79.734375 17.503906 79.492188 17.375 79.359375 17.140625 C 79.207031 16.882812 75.667969 10.71875 74.539062 7.300781 C 74.1875 6.234375 74.253906 5.285156 74.734375 4.476562 C 74.761719 4.421875 74.800781 4.375 74.832031 4.328125 C 74.585938 4.503906 74.363281 4.738281 74.1875 5.027344 C 73.527344 6.101562 73.339844 8.109375 74.789062 10.535156 C 77.101562 14.394531 91.898438 43.691406 93.628906 47.121094 Z M 151.578125 54.800781 C 151.796875 55.046875 152.011719 55.292969 152.230469 55.539062 C 152.445312 55.78125 152.648438 56.023438 152.847656 56.273438 C 152.871094 56.304688 152.894531 56.339844 152.917969 56.371094 C 153.089844 56.589844 153.257812 56.8125 153.417969 57.039062 C 153.425781 57.050781 153.433594 57.0625 153.445312 57.078125 C 153.796875 57.578125 154.117188 58.09375 154.410156 58.621094 C 154.554688 58.523438 154.707031 58.433594 154.855469 58.347656 C 154.902344 58.320312 154.945312 58.296875 154.992188 58.269531 C 155.105469 58.207031 155.21875 58.144531 155.332031 58.085938 C 155.378906 58.0625 155.425781 58.039062 155.472656 58.015625 C 155.511719 57.992188 155.554688 57.976562 155.597656 57.957031 C 155.558594 57.878906 155.523438 57.796875 155.484375 57.714844 C 155.378906 57.519531 155.273438 57.3125 155.152344 57.113281 C 155.039062 56.910156 154.898438 56.714844 154.769531 56.515625 C 154.625 56.328125 154.488281 56.132812 154.332031 55.957031 C 154.183594 55.777344 154.019531 55.613281 153.875 55.449219 C 153.714844 55.292969 153.566406 55.136719 153.410156 55.003906 C 153.253906 54.871094 153.113281 54.742188 152.972656 54.632812 C 152.835938 54.515625 152.703125 54.421875 152.585938 54.339844 C 152.542969 54.308594 152.503906 54.28125 152.464844 54.25 C 152.160156 54.425781 151.863281 54.609375 151.578125 54.800781 Z M 169.429688 86.726562 C 166.402344 90.464844 162.464844 92.5625 158.042969 92.792969 C 158.007812 92.792969 157.96875 92.796875 157.933594 92.796875 C 157.742188 92.796875 157.550781 92.765625 157.371094 92.714844 C 156.804688 94.363281 155.972656 95.929688 154.847656 97.40625 C 153.214844 99.542969 151.941406 101.882812 150.90625 104.359375 C 149.9375 106.679688 148.699219 108.847656 147.371094 110.96875 C 146.757812 111.949219 145.984375 112.796875 144.8125 113.003906 C 143.042969 113.316406 141.253906 113.558594 139.464844 113.71875 C 138.265625 113.824219 137.546875 112.710938 136.453125 112.109375 C 135.757812 113.617188 135.308594 115.132812 134.171875 116.222656 C 133.117188 117.234375 132.042969 118.230469 130.96875 119.21875 C 128.320312 121.660156 125.261719 122.585938 121.707031 121.816406 C 114.578125 120.277344 107.347656 120.4375 100.136719 120.722656 C 97.5 120.828125 94.886719 121.550781 92.257812 121.960938 C 88.425781 122.5625 85.375 121.453125 83.152344 118.0625 C 81.882812 116.128906 81.847656 114.214844 82.398438 112.140625 C 82.710938 110.976562 83.09375 109.828125 83.367188 108.652344 C 83.800781 106.792969 83.761719 104.945312 83.558594 103.019531 C 83.207031 99.632812 81.976562 96.390625 82.03125 92.941406 C 82.054688 91.652344 81.386719 90.703125 80.277344 89.972656 C 77.078125 87.867188 75.191406 83.78125 76.21875 80.132812 C 77.523438 75.515625 78.269531 70.898438 78.023438 66.097656 C 77.945312 64.519531 78.566406 63.039062 79.527344 61.769531 C 81.574219 59.054688 82.90625 55.976562 84.199219 52.863281 C 84.609375 51.882812 85.058594 50.925781 85.539062 49.980469 C 85.554688 49.972656 86.640625 49.46875 88.558594 48.765625 C 89.429688 48.445312 90.472656 48.085938 91.664062 47.707031 C 89.378906 43.183594 75.246094 15.226562 73.0625 11.582031 C 71.429688 8.855469 71.207031 6.007812 72.46875 3.960938 C 73.324219 2.570312 74.769531 1.816406 76.320312 1.9375 C 78.6875 2.125 80.882812 4.253906 82.351562 7.78125 C 86.34375 17.371094 97.851562 45.683594 97.964844 45.96875 C 97.972656 45.988281 97.976562 46.003906 97.984375 46.023438 C 102.28125 45.070312 107.433594 44.320312 113.007812 44.320312 C 113.957031 44.320312 114.894531 44.332031 115.824219 44.351562 C 118.722656 37.347656 112.75 32.554688 103.085938 24.804688 C 102.777344 24.554688 102.722656 24.101562 102.972656 23.789062 C 103.222656 23.476562 103.675781 23.421875 103.984375 23.671875 C 108.953125 27.65625 113.238281 31.09375 115.691406 34.519531 C 118.054688 37.820312 118.601562 40.992188 117.359375 44.394531 C 117.730469 44.40625 118.101562 44.421875 118.46875 44.4375 C 119.183594 42.941406 121.433594 37.265625 118.46875 30.257812 C 118.316406 29.890625 118.484375 29.464844 118.851562 29.308594 C 119.21875 29.152344 119.640625 29.324219 119.796875 29.691406 C 122.726562 36.625 120.996094 42.257812 120.027344 44.511719 C 121.8125 44.609375 123.546875 44.742188 125.21875 44.90625 C 126.011719 41.765625 127.695312 33.132812 124.199219 26.8125 C 120.324219 19.804688 120.214844 12.0625 123.886719 4.417969 C 126.636719 -1.3125 130.476562 -4.917969 130.640625 -5.070312 C 130.929688 -5.339844 131.386719 -5.324219 131.65625 -5.03125 C 131.929688 -4.738281 131.910156 -4.277344 131.617188 -4.007812 C 131.582031 -3.96875 127.792969 -0.40625 125.164062 5.089844 C 121.679688 12.378906 121.777344 19.453125 125.460938 26.109375 C 129.171875 32.820312 127.550781 41.585938 126.675781 45.058594 C 126.980469 45.09375 127.28125 45.128906 127.582031 45.164062 C 128.992188 43.394531 135.414062 34.554688 132.566406 23.921875 C 132.085938 22.132812 131.828125 20.367188 131.792969 18.675781 C 131.785156 18.277344 132.101562 17.945312 132.5 17.9375 C 132.503906 17.9375 132.511719 17.9375 132.515625 17.9375 C 132.90625 17.9375 133.226562 18.253906 133.234375 18.648438 C 133.265625 20.222656 133.511719 21.871094 133.960938 23.542969 C 136.738281 33.925781 131.421875 42.453125 129.25 45.375 C 135.277344 46.1875 140.367188 47.402344 144.171875 48.765625 C 145.261719 49.15625 146.25 49.558594 147.121094 49.964844 C 147.132812 49.972656 147.144531 49.976562 147.152344 49.980469 L 147.144531 50 C 147.742188 50.738281 148.402344 51.433594 149.089844 52.113281 C 149.445312 52.464844 149.792969 52.828125 150.136719 53.199219 C 150.214844 53.128906 150.296875 53.058594 150.386719 53 C 152.761719 51.414062 155.183594 50.609375 157.59375 50.609375 C 159.730469 50.609375 161.816406 51.246094 163.789062 52.503906 C 168.617188 55.582031 172.191406 61.691406 173.347656 68.839844 C 174.464844 75.753906 173.039062 82.273438 169.429688 86.726562 Z M 132.753906 15.285156 C 132.804688 15.296875 132.855469 15.300781 132.910156 15.300781 C 133.238281 15.300781 133.535156 15.070312 133.613281 14.734375 C 134.890625 8.9375 139.035156 6.035156 139.078125 6.007812 C 139.402344 5.78125 139.492188 5.332031 139.265625 5.003906 C 139.042969 4.671875 138.597656 4.585938 138.265625 4.808594 C 138.078125 4.9375 133.613281 8.039062 132.203125 14.421875 C 132.117188 14.808594 132.363281 15.199219 132.753906 15.285156 Z M 110.035156 19.582031 C 112.082031 21.28125 113.839844 23.0625 115.261719 24.882812 C 115.402344 25.066406 115.613281 25.160156 115.828125 25.160156 C 115.984375 25.160156 116.140625 25.109375 116.273438 25.007812 C 116.585938 24.757812 116.640625 24.304688 116.394531 23.992188 C 114.910156 22.089844 113.078125 20.230469 110.953125 18.46875 C 105.351562 13.820312 102.53125 8.011719 102.566406 1.199219 C 102.59375 -3.917969 104.308594 -7.71875 104.328125 -7.753906 C 104.496094 -8.117188 104.335938 -8.546875 103.976562 -8.714844 C 103.613281 -8.882812 103.1875 -8.726562 103.019531 -8.363281 C 102.945312 -8.199219 101.167969 -4.285156 101.125 1.132812 C 101.085938 6.144531 102.601562 13.414062 110.035156 19.582031 Z M 99.445312 21.128906 C 87.210938 7.570312 90.851562 -3.898438 91.011719 -4.382812 C 91.140625 -4.761719 91.546875 -4.964844 91.925781 -4.835938 C 92.300781 -4.710938 92.503906 -4.300781 92.378906 -3.921875 C 92.339844 -3.800781 88.886719 7.269531 100.511719 20.15625 C 100.78125 20.453125 100.757812 20.910156 100.460938 21.179688 C 100.324219 21.304688 100.148438 21.367188 99.976562 21.367188 C 99.78125 21.367188 99.585938 21.285156 99.445312 21.128906 " fill-opacity="1" fill-rule="nonzero"/></g><g fill="#ffffff" fill-opacity="1"><g transform="translate(44.162442, 167.028102)"><g><path d="M 0.65625 -2.953125 L 0.65625 -4.1875 L 5.75 -4.1875 L 5.75 -2.953125 Z M 0.65625 -2.953125 "/></g></g></g><g fill="#ffffff" fill-opacity="1"><g transform="translate(53.682989, 167.028102)"><g/></g></g><g fill="#ffffff" fill-opacity="1"><g transform="translate(60.288157, 167.028102)"><g><path d="M 1.546875 -2.625 C 1.890625 -2.132812 2.242188 -1.753906 2.609375 -1.484375 C 2.984375 -1.210938 3.460938 -1.078125 4.046875 -1.078125 C 4.328125 -1.078125 4.597656 -1.125 4.859375 -1.21875 C 5.117188 -1.3125 5.332031 -1.441406 5.5 -1.609375 C 5.664062 -1.785156 5.75 -2 5.75 -2.25 C 5.75 -2.664062 5.570312 -2.988281 5.21875 -3.21875 C 4.863281 -3.445312 4.367188 -3.625 3.734375 -3.75 C 2.910156 -3.914062 2.257812 -4.203125 1.78125 -4.609375 C 1.300781 -5.023438 1.0625 -5.625 1.0625 -6.40625 C 1.0625 -6.90625 1.195312 -7.335938 1.46875 -7.703125 C 1.75 -8.066406 2.117188 -8.347656 2.578125 -8.546875 C 3.035156 -8.753906 3.53125 -8.859375 4.0625 -8.859375 C 4.75 -8.859375 5.34375 -8.722656 5.84375 -8.453125 C 6.34375 -8.191406 6.734375 -7.8125 7.015625 -7.3125 L 6.078125 -6.390625 C 5.847656 -6.753906 5.5625 -7.050781 5.21875 -7.28125 C 4.882812 -7.519531 4.488281 -7.640625 4.03125 -7.640625 C 3.570312 -7.640625 3.1875 -7.53125 2.875 -7.3125 C 2.5625 -7.101562 2.40625 -6.816406 2.40625 -6.453125 C 2.40625 -6.023438 2.566406 -5.710938 2.890625 -5.515625 C 3.222656 -5.316406 3.660156 -5.160156 4.203125 -5.046875 C 4.691406 -4.953125 5.15625 -4.800781 5.59375 -4.59375 C 6.039062 -4.382812 6.398438 -4.113281 6.671875 -3.78125 C 6.953125 -3.457031 7.09375 -3.0625 7.09375 -2.59375 C 7.09375 -1.757812 6.8125 -1.097656 6.25 -0.609375 C 5.6875 -0.117188 4.910156 0.125 3.921875 0.125 C 3.242188 0.125 2.628906 -0.00390625 2.078125 -0.265625 C 1.523438 -0.535156 1.039062 -0.972656 0.625 -1.578125 Z M 1.546875 -2.625 "/></g></g></g><g fill="#ffffff" fill-opacity="1"><g transform="translate(71.179187, 167.028102)"><g><path d="M 5.0625 0 L 0.890625 0 L 0.890625 -1.25 L 2.3125 -1.25 L 2.3125 -7.484375 L 0.890625 -7.484375 L 0.890625 -8.734375 L 5.0625 -8.734375 L 5.0625 -7.484375 L 3.65625 -7.484375 L 3.65625 -1.25 L 5.0625 -1.25 Z M 5.0625 0 "/></g></g></g><g fill="#ffffff" fill-opacity="1"><g transform="translate(80.251211, 167.028102)"><g><path d="M 2.546875 -8.734375 L 5.40625 -4.078125 L 8.296875 -8.734375 L 9.546875 -8.734375 L 9.546875 0 L 8.203125 0 L 8.203125 -3.578125 C 8.203125 -4.097656 8.210938 -4.59375 8.234375 -5.0625 C 8.253906 -5.53125 8.289062 -6 8.34375 -6.46875 L 5.765625 -2.5 L 4.953125 -2.5 L 2.4375 -6.453125 C 2.488281 -5.992188 2.519531 -5.53125 2.53125 -5.0625 C 2.550781 -4.59375 2.5625 -4.097656 2.5625 -3.578125 L 2.5625 0 L 1.21875 0 L 1.21875 -8.734375 Z M 2.546875 -8.734375 "/></g></g></g><g fill="#ffffff" fill-opacity="1"><g transform="translate(94.132381, 167.028102)"><g><path d="M 4.78125 -8.734375 C 5.238281 -8.734375 5.660156 -8.613281 6.046875 -8.375 C 6.441406 -8.132812 6.753906 -7.8125 6.984375 -7.40625 C 7.222656 -7.007812 7.34375 -6.554688 7.34375 -6.046875 C 7.34375 -5.546875 7.222656 -5.085938 6.984375 -4.671875 C 6.753906 -4.265625 6.441406 -3.941406 6.046875 -3.703125 C 5.660156 -3.460938 5.238281 -3.34375 4.78125 -3.34375 L 2.5625 -3.34375 L 2.5625 0 L 1.21875 0 L 1.21875 -8.734375 Z M 4.75 -4.640625 C 4.976562 -4.640625 5.179688 -4.703125 5.359375 -4.828125 C 5.546875 -4.960938 5.691406 -5.132812 5.796875 -5.34375 C 5.910156 -5.550781 5.96875 -5.785156 5.96875 -6.046875 C 5.96875 -6.441406 5.847656 -6.769531 5.609375 -7.03125 C 5.367188 -7.300781 5.082031 -7.4375 4.75 -7.4375 L 2.5625 -7.4375 L 2.5625 -4.640625 Z M 4.75 -4.640625 "/></g></g></g><g fill="#ffffff" fill-opacity="1"><g transform="translate(105.148001, 167.028102)"><g><path d="M 6.65625 -1.296875 L 6.65625 0 L 1.21875 0 L 1.21875 -8.734375 L 2.5625 -8.734375 L 2.5625 -1.296875 Z M 6.65625 -1.296875 "/></g></g></g><g fill="#ffffff" fill-opacity="1"><g transform="translate(115.727552, 167.028102)"><g><path d="M 5.0625 0 L 0.890625 0 L 0.890625 -1.25 L 2.3125 -1.25 L 2.3125 -7.484375 L 0.890625 -7.484375 L 0.890625 -8.734375 L 5.0625 -8.734375 L 5.0625 -7.484375 L 3.65625 -7.484375 L 3.65625 -1.25 L 5.0625 -1.25 Z M 5.0625 0 "/></g></g></g><g fill="#ffffff" fill-opacity="1"><g transform="translate(124.799575, 167.028102)"><g><path d="M 1.21875 0 L 1.21875 -8.734375 L 6.875 -8.734375 L 6.875 -7.4375 L 2.5625 -7.4375 L 2.5625 -5.015625 L 6.328125 -5.015625 L 6.328125 -3.71875 L 2.5625 -3.71875 L 2.5625 0 Z M 1.21875 0 "/></g></g></g><g fill="#ffffff" fill-opacity="1"><g transform="translate(135.416505, 167.028102)"><g><path d="M 5.0625 0 L 0.890625 0 L 0.890625 -1.25 L 2.3125 -1.25 L 2.3125 -7.484375 L 0.890625 -7.484375 L 0.890625 -8.734375 L 5.0625 -8.734375 L 5.0625 -7.484375 L 3.65625 -7.484375 L 3.65625 -1.25 L 5.0625 -1.25 Z M 5.0625 0 "/></g></g></g><g fill="#ffffff" fill-opacity="1"><g transform="translate(144.488534, 167.028102)"><g><path d="M 1.21875 -8.734375 L 6.71875 -8.734375 L 6.71875 -7.4375 L 2.5625 -7.4375 L 2.5625 -5.125 L 6.03125 -5.125 L 6.03125 -3.828125 L 2.5625 -3.828125 L 2.5625 -1.296875 L 6.71875 -1.296875 L 6.71875 0 L 1.21875 0 Z M 1.21875 -8.734375 "/></g></g></g><g fill="#ffffff" fill-opacity="1"><g transform="translate(155.254978, 167.028102)"><g><path d="M 4.640625 -8.734375 C 5.304688 -8.734375 5.894531 -8.617188 6.40625 -8.390625 C 6.925781 -8.160156 7.351562 -7.84375 7.6875 -7.4375 C 8.03125 -7.03125 8.289062 -6.5625 8.46875 -6.03125 C 8.644531 -5.507812 8.734375 -4.953125 8.734375 -4.359375 C 8.734375 -3.566406 8.578125 -2.835938 8.265625 -2.171875 C 7.960938 -1.515625 7.503906 -0.988281 6.890625 -0.59375 C 6.285156 -0.195312 5.535156 0 4.640625 0 L 1.21875 0 L 1.21875 -8.734375 Z M 4.578125 -1.296875 C 5.234375 -1.296875 5.765625 -1.429688 6.171875 -1.703125 C 6.578125 -1.984375 6.875 -2.359375 7.0625 -2.828125 C 7.257812 -3.296875 7.359375 -3.804688 7.359375 -4.359375 C 7.359375 -4.910156 7.257812 -5.414062 7.0625 -5.875 C 6.875 -6.34375 6.578125 -6.71875 6.171875 -7 C 5.765625 -7.289062 5.234375 -7.4375 4.578125 -7.4375 L 2.5625 -7.4375 L 2.5625 -1.296875 Z M 4.578125 -1.296875 "/></g></g></g><g fill="#ffffff" fill-opacity="1"><g transform="translate(167.690896, 167.028102)"><g/></g></g><g fill="#ffffff" fill-opacity="1"><g transform="translate(174.29607, 167.028102)"><g><path d="M 0.65625 -2.953125 L 0.65625 -4.1875 L 5.75 -4.1875 L 5.75 -2.953125 Z M 0.65625 -2.953125 "/></g></g></g><g fill="#ffffff" fill-opacity="1"><g transform="translate(6.51516, 147.257291)"><g><path d="M 5.125 -18.5 C 2.667969 -18.5 1.320312 -17.175781 1.320312 -14.695312 L 1.320312 -10.121094 C 1.320312 -9.621094 1.558594 -9.300781 2.035156 -9.144531 L 8.378906 -7.082031 L 8.378906 -4.414062 C 8.378906 -3.699219 8.007812 -3.355469 7.320312 -3.355469 L 5.894531 -3.355469 C 5.234375 -3.355469 4.835938 -3.699219 4.835938 -4.414062 L 4.835938 -5.523438 C 4.835938 -5.8125 4.703125 -5.945312 4.414062 -5.945312 L 1.746094 -5.945312 C 1.480469 -5.945312 1.320312 -5.8125 1.320312 -5.523438 L 1.320312 -3.804688 C 1.320312 -1.320312 2.667969 0 5.125 0 L 8.085938 0 C 10.570312 0 11.890625 -1.320312 11.890625 -3.804688 L 11.890625 -8.773438 C 11.890625 -9.277344 11.65625 -9.59375 11.203125 -9.75 L 4.808594 -11.8125 L 4.808594 -14.058594 C 4.808594 -14.746094 5.207031 -15.117188 5.867188 -15.117188 L 7.320312 -15.117188 C 8.035156 -15.117188 8.378906 -14.746094 8.378906 -14.058594 L 8.378906 -12.949219 C 8.378906 -12.683594 8.535156 -12.527344 8.800781 -12.527344 L 11.46875 -12.527344 C 11.761719 -12.527344 11.890625 -12.683594 11.890625 -12.949219 L 11.890625 -14.695312 C 11.890625 -17.175781 10.570312 -18.5 8.085938 -18.5 Z M 5.125 -18.5 "/></g></g></g><g fill="#ffffff" fill-opacity="1"><g transform="translate(19.727983, 147.257291)"><g><path d="M 1.320312 -0.421875 C 1.320312 -0.160156 1.480469 0 1.746094 0 L 4.335938 0.0273438 C 4.625 0.0273438 4.757812 -0.132812 4.757812 -0.394531 L 4.757812 -5.683594 L 8.085938 -5.707031 C 10.570312 -5.734375 11.890625 -7.054688 11.890625 -9.515625 L 11.890625 -14.695312 C 11.890625 -17.175781 10.570312 -18.5 8.085938 -18.5 L 1.746094 -18.5 C 1.480469 -18.5 1.320312 -18.339844 1.320312 -18.074219 Z M 4.757812 -9.089844 L 4.757812 -15.0625 L 7.398438 -15.089844 C 8.113281 -15.089844 8.457031 -14.71875 8.457031 -14.03125 L 8.457031 -10.175781 C 8.457031 -9.515625 8.113281 -9.117188 7.398438 -9.117188 Z M 4.757812 -9.089844 "/></g></g></g><g fill="#ffffff" fill-opacity="1"><g transform="translate(32.940807, 147.257291)"><g><path d="M 11.867188 -18.074219 C 11.867188 -18.339844 11.761719 -18.5 11.441406 -18.5 L 1.71875 -18.5 C 1.480469 -18.5 1.320312 -18.339844 1.320312 -18.074219 L 1.320312 -0.421875 C 1.320312 -0.160156 1.480469 0 1.71875 0 L 11.441406 0 C 11.761719 0 11.867188 -0.160156 11.867188 -0.421875 L 11.867188 -3.066406 C 11.867188 -3.355469 11.761719 -3.488281 11.441406 -3.488281 L 4.914062 -3.488281 L 4.914062 -7.398438 L 9.882812 -7.398438 C 10.148438 -7.398438 10.304688 -7.558594 10.304688 -7.847656 L 10.304688 -10.464844 C 10.304688 -10.753906 10.148438 -10.914062 9.882812 -10.914062 L 4.914062 -10.914062 L 4.914062 -14.984375 L 11.441406 -14.984375 C 11.761719 -14.984375 11.867188 -15.167969 11.867188 -15.433594 Z M 11.867188 -18.074219 "/></g></g></g><g fill="#ffffff" fill-opacity="1"><g transform="translate(46.127208, 147.257291)"><g><path d="M 11.917969 -14.695312 C 11.917969 -17.175781 10.570312 -18.5 8.113281 -18.5 L 5.152344 -18.5 C 2.667969 -18.5 1.320312 -17.175781 1.320312 -14.695312 L 1.320312 -3.804688 C 1.320312 -1.320312 2.667969 0 5.152344 0 L 8.113281 0 C 10.570312 0 11.917969 -1.320312 11.917969 -3.804688 L 11.917969 -6.660156 C 11.917969 -6.925781 11.761719 -7.082031 11.496094 -7.082031 L 9.011719 -7.082031 C 8.722656 -7.082031 8.589844 -6.925781 8.589844 -6.660156 L 8.589844 -4.414062 C 8.589844 -3.699219 8.21875 -3.355469 7.53125 -3.355469 L 5.839844 -3.355469 C 5.152344 -3.355469 4.785156 -3.699219 4.785156 -4.414062 L 4.785156 -14.007812 C 4.785156 -14.695312 5.125 -15.0625 5.839844 -15.0625 L 7.53125 -15.0625 C 8.21875 -15.0625 8.589844 -14.695312 8.589844 -14.007812 L 8.589844 -11.839844 C 8.589844 -11.574219 8.722656 -11.417969 9.011719 -11.417969 L 11.496094 -11.417969 C 11.761719 -11.417969 11.917969 -11.574219 11.917969 -11.839844 Z M 11.917969 -14.695312 "/></g></g></g><g fill="#ffffff" fill-opacity="1"><g transform="translate(59.366454, 147.257291)"><g><path d="M 1.746094 0 C 1.453125 0 1.320312 -0.160156 1.320312 -0.421875 L 1.320312 -18.074219 C 1.320312 -18.339844 1.453125 -18.5 1.746094 -18.5 L 4.492188 -18.5 C 4.757812 -18.5 4.914062 -18.339844 4.914062 -18.074219 L 4.914062 -0.421875 C 4.914062 -0.160156 4.757812 0 4.492188 0 Z M 1.746094 0 "/></g></g></g><g fill="#ffffff" fill-opacity="1"><g transform="translate(65.602909, 147.257291)"><g><path d="M 13.792969 0 C 14.113281 0 14.246094 -0.160156 14.164062 -0.449219 L 9.777344 -18.128906 C 9.726562 -18.394531 9.566406 -18.5 9.328125 -18.5 L 5.65625 -18.5 C 5.417969 -18.5 5.257812 -18.394531 5.207031 -18.128906 L 0.820312 -0.449219 C 0.738281 -0.160156 0.871094 0 1.164062 0 L 3.753906 0 C 3.992188 0 4.121094 -0.132812 4.175781 -0.371094 L 4.996094 -3.699219 L 9.964844 -3.699219 L 10.808594 -0.371094 C 10.863281 -0.132812 10.992188 0 11.230469 0 Z M 9.144531 -6.765625 L 5.8125 -6.765625 L 7.480469 -13.953125 Z M 9.144531 -6.765625 "/></g></g></g><g fill="#ffffff" fill-opacity="1"><g transform="translate(80.586252, 147.257291)"><g><path d="M 4.914062 -3.488281 L 10.148438 -3.488281 C 10.4375 -3.488281 10.570312 -3.328125 10.570312 -3.066406 L 10.570312 -0.421875 C 10.570312 -0.132812 10.4375 0 10.148438 0 L 1.746094 0 C 1.480469 0 1.320312 -0.132812 1.320312 -0.421875 L 1.320312 -18.074219 C 1.320312 -18.339844 1.480469 -18.5 1.746094 -18.5 L 4.492188 -18.5 C 4.785156 -18.5 4.914062 -18.339844 4.914062 -18.074219 Z M 4.914062 -3.488281 "/></g></g></g><g fill="#ffffff" fill-opacity="1"><g transform="translate(92.477797, 147.257291)"><g><path d="M 10.941406 -18.5 C 11.230469 -18.5 11.363281 -18.339844 11.363281 -18.074219 L 11.363281 -15.433594 C 11.363281 -15.167969 11.230469 -15.011719 10.941406 -15.011719 L 7.875 -15.011719 L 7.875 -0.421875 C 7.875 -0.132812 7.742188 0 7.453125 0 L 4.703125 0 C 4.441406 0 4.28125 -0.132812 4.28125 -0.421875 L 4.28125 -15.011719 L 1.214844 -15.011719 C 0.953125 -15.011719 0.792969 -15.167969 0.792969 -15.433594 L 0.792969 -18.074219 C 0.792969 -18.339844 0.953125 -18.5 1.214844 -18.5 Z M 10.941406 -18.5 "/></g></g></g><g fill="#ffffff" fill-opacity="1"><g transform="translate(104.63359, 147.257291)"><g><path d="M 10.519531 -18.5 C 10.199219 -18.5 10.015625 -18.339844 9.910156 -18.074219 L 6.949219 -11.285156 L 3.992188 -18.074219 C 3.886719 -18.339844 3.699219 -18.5 3.382812 -18.5 L 0.738281 -18.5 C 0.34375 -18.5 0.160156 -18.234375 0.316406 -17.890625 L 5.152344 -6.925781 L 5.152344 -0.527344 C 5.152344 -0.183594 5.339844 0 5.683594 0 L 8.21875 0 C 8.5625 0 8.746094 -0.183594 8.746094 -0.527344 L 8.746094 -6.925781 L 13.582031 -17.890625 C 13.742188 -18.234375 13.558594 -18.5 13.160156 -18.5 Z M 10.519531 -18.5 "/></g></g></g><g fill="#ffffff" fill-opacity="1"><g transform="translate(125.912989, 149.225567)"><g><path d="M 11.917969 -17.335938 C 11.917969 -19.820312 10.570312 -21.140625 8.113281 -21.140625 L 5.152344 -21.140625 C 2.667969 -21.140625 1.320312 -19.820312 1.320312 -17.335938 L 1.320312 -3.804688 C 1.320312 -1.320312 2.667969 0 5.152344 0 L 8.113281 0 C 10.570312 0 11.917969 -1.320312 11.917969 -3.804688 L 11.917969 -6.660156 C 11.917969 -6.925781 11.761719 -7.082031 11.496094 -7.082031 L 8.851562 -7.082031 C 8.5625 -7.082031 8.429688 -6.925781 8.429688 -6.660156 L 8.429688 -4.546875 C 8.429688 -3.832031 8.058594 -3.488281 7.375 -3.488281 L 6 -3.488281 C 5.3125 -3.488281 4.941406 -3.832031 4.941406 -4.546875 L 4.941406 -16.597656 C 4.941406 -17.285156 5.285156 -17.652344 6 -17.652344 L 7.375 -17.652344 C 8.058594 -17.652344 8.429688 -17.285156 8.429688 -16.597656 L 8.429688 -14.480469 C 8.429688 -14.21875 8.5625 -14.058594 8.851562 -14.058594 L 11.496094 -14.058594 C 11.761719 -14.058594 11.917969 -14.21875 11.917969 -14.480469 Z M 11.917969 -17.335938 "/></g></g></g><g fill="#ffffff" fill-opacity="1"><g transform="translate(139.152235, 149.225567)"><g><path d="M 1.320312 -3.804688 C 1.320312 -1.320312 2.644531 0 5.125 0 L 8.085938 0 C 10.570312 0 11.890625 -1.320312 11.890625 -3.804688 L 11.890625 -17.335938 C 11.890625 -19.820312 10.570312 -21.140625 8.085938 -21.140625 L 5.125 -21.140625 C 2.644531 -21.140625 1.320312 -19.820312 1.320312 -17.335938 Z M 5.894531 -3.410156 C 5.207031 -3.410156 4.835938 -3.753906 4.835938 -4.464844 L 4.835938 -16.675781 C 4.835938 -17.363281 5.207031 -17.734375 5.894531 -17.734375 L 7.425781 -17.734375 C 8.113281 -17.734375 8.484375 -17.363281 8.484375 -16.675781 L 8.484375 -4.464844 C 8.484375 -3.753906 8.113281 -3.410156 7.425781 -3.410156 Z M 5.894531 -3.410156 "/></g></g></g><g fill="#ffffff" fill-opacity="1"><g transform="translate(152.365059, 149.225567)"><g><path d="M 11.890625 -20.71875 C 11.890625 -20.984375 11.734375 -21.140625 11.46875 -21.140625 L 1.746094 -21.140625 C 1.453125 -21.140625 1.320312 -20.984375 1.320312 -20.71875 L 1.320312 -0.421875 C 1.320312 -0.160156 1.453125 0 1.746094 0 L 4.492188 0 C 4.757812 0 4.914062 -0.160156 4.914062 -0.421875 L 4.914062 -8.851562 L 9.882812 -8.851562 C 10.148438 -8.851562 10.304688 -8.984375 10.304688 -9.277344 L 10.304688 -11.917969 C 10.304688 -12.183594 10.148438 -12.339844 9.882812 -12.339844 L 4.914062 -12.339844 L 4.914062 -17.652344 L 11.46875 -17.652344 C 11.734375 -17.652344 11.890625 -17.8125 11.890625 -18.074219 Z M 11.890625 -20.71875 "/></g></g></g><g fill="#ffffff" fill-opacity="1"><g transform="translate(165.577882, 149.225567)"><g><path d="M 11.890625 -20.71875 C 11.890625 -20.984375 11.734375 -21.140625 11.46875 -21.140625 L 1.746094 -21.140625 C 1.453125 -21.140625 1.320312 -20.984375 1.320312 -20.71875 L 1.320312 -0.421875 C 1.320312 -0.160156 1.453125 0 1.746094 0 L 4.492188 0 C 4.757812 0 4.914062 -0.160156 4.914062 -0.421875 L 4.914062 -8.851562 L 9.882812 -8.851562 C 10.148438 -8.851562 10.304688 -8.984375 10.304688 -9.277344 L 10.304688 -11.917969 C 10.304688 -12.183594 10.148438 -12.339844 9.882812 -12.339844 L 4.914062 -12.339844 L 4.914062 -17.652344 L 11.46875 -17.652344 C 11.734375 -17.652344 11.890625 -17.8125 11.890625 -18.074219 Z M 11.890625 -20.71875 "/></g></g></g><g fill="#ffffff" fill-opacity="1"><g transform="translate(178.790705, 149.225567)"><g><path d="M 11.867188 -20.71875 C 11.867188 -20.984375 11.761719 -21.140625 11.441406 -21.140625 L 1.71875 -21.140625 C 1.480469 -21.140625 1.320312 -20.984375 1.320312 -20.71875 L 1.320312 -0.421875 C 1.320312 -0.160156 1.480469 0 1.71875 0 L 11.441406 0 C 11.761719 0 11.867188 -0.160156 11.867188 -0.421875 L 11.867188 -3.066406 C 11.867188 -3.355469 11.761719 -3.488281 11.441406 -3.488281 L 4.835938 -3.488281 L 4.835938 -8.828125 L 9.882812 -8.828125 C 10.148438 -8.828125 10.304688 -8.984375 10.304688 -9.277344 L 10.304688 -11.890625 C 10.304688 -12.183594 10.148438 -12.339844 9.882812 -12.339844 L 4.835938 -12.339844 L 4.835938 -17.625 L 11.441406 -17.625 C 11.761719 -17.625 11.867188 -17.8125 11.867188 -18.074219 Z M 11.867188 -20.71875 "/></g></g></g><g fill="#ffffff" fill-opacity="1"><g transform="translate(191.977106, 149.225567)"><g><path d="M 11.867188 -20.71875 C 11.867188 -20.984375 11.761719 -21.140625 11.441406 -21.140625 L 1.71875 -21.140625 C 1.480469 -21.140625 1.320312 -20.984375 1.320312 -20.71875 L 1.320312 -0.421875 C 1.320312 -0.160156 1.480469 0 1.71875 0 L 11.441406 0 C 11.761719 0 11.867188 -0.160156 11.867188 -0.421875 L 11.867188 -3.066406 C 11.867188 -3.355469 11.761719 -3.488281 11.441406 -3.488281 L 4.835938 -3.488281 L 4.835938 -8.828125 L 9.882812 -8.828125 C 10.148438 -8.828125 10.304688 -8.984375 10.304688 -9.277344 L 10.304688 -11.890625 C 10.304688 -12.183594 10.148438 -12.339844 9.882812 -12.339844 L 4.835938 -12.339844 L 4.835938 -17.625 L 11.441406 -17.625 C 11.761719 -17.625 11.867188 -17.8125 11.867188 -18.074219 Z M 11.867188 -20.71875 "/></g></g></g></svg>